<?xml version="1.0" encoding="UTF-8"?> <svg xmlns="http://www.w3.org/2000/svg" id="Layer_2" viewBox="0 0 277.75 254.72"><defs><style>.cls-1{fill:#f67e00;stroke:#000;stroke-miterlimit:10;stroke-width:1.5px;}</style></defs><g id="Layer_1-2"><path class="cls-1" d="M118.08,84.66c13.41,2.97,27.38-4.11,32.64-17.29,5.84-14.63-1.3-31.22-15.93-37.06-12.71-5.07-26.9-.35-34.23,10.57,4.33-15.37-3.56-31.83-18.72-37.88-16.21-6.47-34.59,1.44-41.06,17.65-4.31,10.8-2.23,22.56,4.43,31.12-.01.01-.02.03-.03.04-1.64-1.1-3.41-2.05-5.32-2.81-14.63-5.84-31.22,1.3-37.06,15.93-5.84,14.63,1.3,31.22,15.93,37.06,6.56,2.62,13.51,2.62,19.71.52-2.5,2.3-4.53,5.18-5.87,8.54-4.79,12,1.06,25.61,13.06,30.39,12,4.79,25.61-1.06,30.39-13.06.73-1.82,1.21-3.69,1.46-5.55,2.89,7.64,8.85,14.08,17.04,17.34,15.47,6.17,33.02-1.37,39.19-16.84,6.01-15.06-.98-32.08-15.62-38.67Z"></path><path class="cls-1" d="M73.18,186.02c-8.07-5.2-18.94-3.94-25.57,3.42-7.37,8.17-6.72,20.77,1.46,28.14,7.1,6.4,17.54,6.74,24.99,1.37-6.56,9.02-5.38,21.72,3.09,29.35,9.05,8.16,23.01,7.44,31.17-1.61,5.44-6.03,6.93-14.24,4.64-21.46,0,0,.02-.01.03-.02.81,1.12,1.74,2.17,2.8,3.13,8.17,7.37,20.77,6.72,28.14-1.46,7.37-8.17,6.72-20.77-1.46-28.14-3.66-3.3-8.22-4.99-12.79-5.11,2.19-.9,4.22-2.29,5.92-4.17,6.04-6.7,5.51-17.03-1.2-23.08-6.7-6.04-17.03-5.51-23.08,1.2-.92,1.02-1.68,2.12-2.3,3.28-.05-5.7-2.39-11.37-6.96-15.49-8.64-7.79-21.97-7.1-29.76,1.54-7.58,8.41-7.13,21.25.87,29.12Z"></path><path class="cls-1" d="M225.16,198.43c15.9.66,29.33-11.69,29.99-27.59.43-10.22-4.53-19.42-12.35-24.86,1.94.54,3.97.87,6.08.96,14.9.62,27.48-10.95,28.1-25.85s-10.95-27.48-25.85-28.1c-7.29-.3-14.02,2.32-19.07,6.81.46-1.85.75-3.77.83-5.75.65-15.62-11.48-28.8-27.1-29.45s-28.8,11.48-29.45,27.1c-.22,5.3,1.03,10.31,3.39,14.66-3.67-2.59-8.09-4.2-12.91-4.4-13.32-.56-24.57,9.79-25.13,23.12-.56,13.32,9.79,24.57,23.12,25.13.78.03,1.55.02,2.32-.02-5.18,3.53-8.68,9.37-8.96,16.11-.47,11.32,8.32,20.87,19.64,21.35,9.13.38,17.11-5.27,20.1-13.41,2.12,13.26,13.32,23.64,27.26,24.22Z"></path></g></svg> 