<?xml version="1.0" encoding="UTF-8"?> <svg xmlns="http://www.w3.org/2000/svg" id="Layer_2" viewBox="0 0 256.66 196.99"><defs><style>.cls-1{fill:#0f1014;}.cls-1,.cls-2,.cls-3,.cls-4,.cls-5{stroke-width:0px;}.cls-2{fill:#db7a2a;}.cls-3{fill:#f67e00;}.cls-4{fill:#c4590a;}.cls-5{fill:#101114;}</style></defs><g id="Layer_1-2"><path class="cls-5" d="M253.7,154.75c1.85-1.28,2.29-3.34,2.96-5.18-1.09-3.08-3.63-3.65-6.47-3.73.16-2.06-.66-3.75-1.88-5.02-1.1-1.14-2.31-2.24-3.63-3.2-1.58-1.16-2.94-2.54-3.46-4.56-.52-2.02-1.91-3.17-3.92-3.61-.49-.11-1.02-.16-1.43-.68.08-2.62-1.35-4.13-3.83-4.83-.43-.12-.92-.27-1.23-.56-.8-.8-1.81-1.19-2.89-1.61.36-1.2-.42-2.17-.36-3.31.1-2.03-.67-2.98-2.62-3.5-.8-.21-1.62-.34-2.52-.52.42-2.33-.67-3.53-2.54-3.9-1.93-2.11-3.68-4.09-6.21-5.32-.24-1.18-1.25-1.97-1.89-2.93.22-.7.42-1.31.62-1.95.44-.27.9-.51,1.32-.8,1.74-1.23,1.74-3.08,0-4.31-.32-.22-.69-.37-1.03-.55-2.16-1.11-4.53-1.5-6.89-1.89-.57-.09-1.18-.06-1.63-.54-.75-.77-1.71-1.19-2.68-1.53-1.78-.62-2.88-1.66-2.87-3.65,0-.96-.57-1.56-1.45-1.86-.47-.16-.98-.24-1.58-.37-.28-2.72-2.49-3.25-4.68-3.73.02-2.12-.8-3.51-2.76-4.11-.64-.19-1.11-.64-1.55-1.13-1.03-1.15-2.1-2.26-3.55-2.82,0-1.25-.06-2.36.02-3.45.09-1.33-.5-2.26-1.52-2.97-1.02-.7-1.98-1.45-2.73-2.44-.32-.43-.75-.72-1.3-.8-2.04-.29-3.31-1.78-4.75-2.87-.01-1.3.71-2.41.06-3.58-.92-1.68-1.55-3.44-2.83-4.99-1.77-2.14-3.83-3.37-6.51-3.8-1.08-.18-2.03-.21-2.84.69-.12.7-.16,1.35.47,1.92.5.44,1.32.47,1.63,1.25-1.16.5-2.34.93-3.15,1.91-1.18,1.4-2.54,2.59-4.07,3.48-.43,2.21-1.46,3.8-3.7,4.35-.9.22-1.5.84-1.78,1.66-.52,1.55-1.67,2.17-3.14,2.09-2.06-.11-3.53.57-4.32,2.53-.42,1.05-1.23,1.46-2.32,1.4-.83-.05-1.53.27-2.07.87-.42.47-.76,1.02-1.23,1.67-3.84.08-7.21,1.3-9.39,4.99-.62.19-1.42.17-2.18.11-2.13-.19-3.7.47-4.44,2.61-.03.09-.2.14-.42.27-1.74-.84-3.43-3.16-5.55-.8-.34.91.18,1.66.04,2.46-.69.58-1.5.76-2.36.72-1.04-.04-2.08-.09-3.11-.18-.95-.08-1.82-.01-2.53.79-.08.54-.17,1.11-.28,1.77-1,.52-1.94.75-2.88,1.02-1.7.49-3.58.65-4.54,2.75-1.38-1.82-3.2-1.96-5.05-1.98-.5-1.61-1.7-1.94-3.13-1.9-.87-1.18-2.14-1.63-3.48-1.9-1.06-.2-2.01-.52-2.68-1.42-.37-.49-.93-.87-1.47-.87-1.36,0-2.28-.8-3.27-1.5-.69-.48-1.39-.97-2.24-1.13-1.2-.21-1.79-.87-2.29-2.05-.79-1.86-1.69-3.79-3.68-4.81-.92.19-1.88.18-2.52.95-2.29,2.79-4.36,5.67-3.98,9.59.08.82.12,1.68-.25,2.46-.24.07-.43.19-.61.16-1.8-.16-2.74.72-3.23,2.41-.28.98-.75,1.95-1.52,2.68-.77.74-1.3,1.62-1.68,2.6-.5,1.27-1.33,2.21-2.57,2.8-1.1.52-1.95,1.33-2.35,2.49-.53,1.5-1.57,2.49-2.92,3.24-1.04.58-1.66,1.44-1.55,2.67.2,2.36-1.3,4.03-2.59,5.64-1.05,1.3-2.43,2.31-2.3,4.31-1.64.08-2.94.7-3.94,1.74-1.2,1.23-2.54,2.2-4.04,2.99-.94.5-1.66,1.22-1.7,2.41,0,.29-.04.66-.39.83-2.4-.53-2.89-.17-3.47,2.39-.14.61-.21,1.28-.64,1.76-1.97.28-2.01.29-2.84,1.96-.38.77-.72,1.63-1.56,1.91-1.24.42-1.89,1.3-2.37,2.41-.16.37-.37.68-.76.91-.98.27-2.03-.06-2.74.04-2.19.86-1.15,2.96-2.21,4.19-1.04.29-1.89.92-2.44,1.97-.21.4-.57.77-1.05.8-1.19.05-1.8.88-2.49,1.67-.54.64-1.08,1.3-1.85,1.7-.2.03-.39.06-.59.07-2.17.1-2.56.44-2.79,2.61-.08.7-.11,1.4-.39,2.06-.62.24-1.3.25-1.6.54-1.12,1.3-.47,2.5-.23,3.61-2.29.87-4.28,4.49-3.84,6.8.42.61,1.26.61,1.83,1.26-.49.72-.95,1.5-.82,2.44.15,1.12,1.21,1.37,2.04,1.91-.79.95-1.42,1.86-1.17,2.77.39,1,1.21,1.15,1.71,1.77-.43.77-.82,1.49-1.25,2.26.01.95.65,1.72,1.08,2.5-.7,1.06-1.5,1.97-1.48,3.22.02,1.31,1.33,1.83,1.97,2.92-1.31,1.91-1.4,3.72.75,5.02-.18,1.12-.79,1.96-.78,2.95,0,1.1.91,1.83,1.21,2.79-.29.63-.59,1.21-.82,1.81-.22.58-.15,1.15.24,1.66.71.95,2.11,1.43,3.27,1.06,1.05-.34,2.09-.71,3.14-1.07.62-.22,1.23-.45,1.88-.18,1.96.8,3.82.39,5.64-.45.79-.37,1.58-.66,2.44-.36,1.55.54,3.15.42,4.54-.27,2.39-1.18,4.46-.87,6.79.29,2.17,1.08,4.6,1.39,6.8-.34.45-.35,1.03-.55,1.58-.75.75-.27,1.49-.37,2.26.02,1.81.92,3.67.91,5.44-.02,2.1-1.1,4.39-.57,6.51-1.09,1.66,1.68,3.53,1.72,5.5,1.03.85-.29,1.7-.63,2.56-.92.98-.34,1.95-.9,2.94-.95,2.01-.09,3.81-.69,5.56-1.59,1.19-.62,2.28-.62,3.4.34,1.55,1.3,3.33,1.2,5.12.44.77-.33,1.53-.7,2.36-1.08,1.61.97,3.37.6,5.02.42,2.2,1.71,2.36,1.67,4.72.32,2.54-1.45,5.27-2.45,8.09-2.95.27.16.46.24.6.37,1.62,1.5,3.46,1.63,5.42.84.9-.37,1.8-.77,2.64-1.23.87-.49,1.71-.58,2.58-.07,1.02.59,2.11.47,3.21.33,1.16-.15,2.26-.52,3.33-.91.22.12.39.21.54.32,2.05,1.65,3.62,1.73,5.85.3.65-.42,1.33-.82,1.93-1.3.55-.44,1.1-.66,1.79-.47,4.51,3.96,5.37,4.01,9.34.42,1.2-.01,2.39-.32,3.58-.64.71-.19,1.4-.33,2.09.01,1.37.69,2.78.59,4.16.16,2.51-.77,5.12-.59,7.67-.93.57-.07,1.18,0,1.74.11,1.48.31,2.82-.04,4.12-.75.85-.46,1.54-1.22,2.69-1.34,1.44.77,2.88,2.02,4.74,1.58,1.73-.42,2.97-1.78,4.44-2.77.92.46,1.79.94,2.79.95,2.59.02,5.2.19,7.72-.68.57-.2,1.13-.29,1.71-.09.62.21,1.24.09,1.88.04,2.58-.23,5.17-.54,7.5,1.12.91.64,2.02.87,3.16.81.67-.04,1.26.09,1.87.4.81.4,1.66.78,2.52,1,.87.21,1.56.6,2.14,1.25.39.44.83.82,1.45,1.15,1.4-.26,2.72.2,3.95,1,.95.62,2.05.8,3.12,1.03.7.15,1.43.24,1.96.77,1.15,1.13,2.46,1.33,3.95.72,1.86,1.32,3.87,1.4,5.86.71.35.16.6.23.82.37,1.15.72,2.31,1.08,3.67.58.76-.29,1.52-.11,2.27.2.96.39,1.93.87,2.97.89,2.73.06,4.97,1.28,7.15,2.75,1.75,1.18,3.38,2.69,5.86,2.57,1.03-.42,1.33-1.42,1.33-2.62,0-1.43-.06-2.86-.57-4.23-.27-.74-.37-1.5-.41-2.35.7-1.27,1.34-2.6,1.29-4.16-.04-1.19.34-2.29.84-3.36.64-1.38.92-2.81.26-4.24.67-.8,1.53-1.39,1.56-2.6-.13-.18-.31-.44-.5-.7-1.26-1.73-1.2-2.98.19-4.67.49-.6.94-1.25,1.43-1.85,1.46-1.76,2.12-3.7,1.23-5.98,1.66-1.74.25-3.56.09-5.47ZM95.69,92.25c2.76-.48,5.87.04,7.22-3.35,1.14-.33,2.32-.64,3.49-1.02,1.5-.48,3.04-.95,3.33-2.79,3.35.11,6.67.54,8.31-3.33.49.37.97.79,1.51,1.12,1.13.69,2.05.54,2.94-.48.34-.39.59-.85.87-1.29.24-.38.44-.78.77-1.36,1.09,0,2.24.04,3.39,0,2.24-.1,2.77-.56,3.39-2.82,1.5-1.02,3.02-1.99,5.06-2.02,1.76-.02,3.29-.75,4.22-2.64,2.7.14,4.38-1.42,5.32-3.86,3.31.11,5.93-.81,7.17-3.99,2.54-.79,4.26-2.34,5.17-4.76.16-.44.43-.79.85-1.02.75-.43,1.33-1.05,1.86-1.71,1.04-1.25,2.21-2.12,3.95-2.18,1.35-.05,1.75-1.11,1.91-2.36,1.97,1.45,2.82,3.56,3.73,5.62.16.37.05.77-.08,1.15-.59,1.66.01,3.02,1.35,3.92,1.71,1.13,3.12,2.64,5.22,3.31,1.26.4,2.24,1.71,3.4,2.66.21,1.3.43,2.61.1,3.99-.29,1.2.13,1.98,1.37,2.46,1.28.49,2.25,1.29,3.04,2.34.86,1.14,2.26,1.47,3.3,2.25.79,3.25.32,2.91,4.64,4.5.31.67.1,1.53.67,2.39.19.21.64.49,1.15.62.49.14,1,.26,1.57.4.24,2.62,1.82,4.16,4.17,5.1,1.02.4,2.03.87,2.8,1.73.51.55,1.18.67,1.94.72,2.34.16,4.6.68,6.74,1.66.03.62-.51.57-.77.72-.74.42-1.16,1.01-1.28,1.84-.1.7-.26,1.38-.51,2.06-.34.92-.15,1.79.66,2.46.65.54,1.18,1.19,1.52,1.99.27.61.7,1.12,1.28,1.43,2.05,1.06,3.68,2.58,5.02,4.44.52.72,1.41.9,2.09,1.37-.03,2.64.52,3.27,3.11,3.84.69.15,1.38.3,2.19.47-.42,1.66.39,3.18.15,4.81-.14.94.68,1.58,1.54,1.75,1.2.22,2.15.82,3.09,1.52.58.44,1.3.58,1.98.8.96.31,1.53.9,1.5,2-.06,1.79,1.01,2.7,2.59,3.19.44.13.87.28,1.3.39.84.21,1.35.74,1.56,1.57.69,2.67,2.53,4.5,4.59,6.12,2.07,1.61,4.01,3.31,4.95,6.13-1.05.28-1.92.69-2.68,1.45-1.05-.94-2.21-1.4-3.5-1.02-.75-.38-1.14-1-1.62-1.52-.87-.95-1.89-1.34-3.15-.97-2.18.64-4.38.62-6.54.03-1.17-.32-2.31-.16-3.43-.1-2.36-2.44-2.84-2.48-5.73-.42-.94-.86-2.01-1.29-3.3-.59-.41.21-.87.05-1.28-.21-1.68-1.12-3.67-1.22-5.55-1.7-3.13-.8-6.2-1.81-9.51-1.73-.92.02-1.92-.41-2.77-.86-1.68-.9-3.45-1.45-5.3-1.85-.38-.08-.77-.33-1.12-.28-2.2.32-3.9-.9-5.57-1.93-1.44-.89-2.74-1.03-4.22-.34-.17.08-.37.11-.61.18-1.28-.44-2.25-1.91-3.9-1.23-.25-.29-.48-.52-.67-.77-.77-1.05-1.83-1.3-2.94-.85-1.14.47-1.98.19-2.82-.57-.85-.75-1.92-1.05-3.06-1.25-.62-1.25-1.53-2.08-2.99-2.14-.17,0-.37-.14-.52-.25-1.43-1.11-2.89-1.38-4.49-.29-.44.3-.97.32-1.51.18-.83-.21-1.68-.16-2.64-.06-.55-.74-.63-2.01-1.91-2.14-1.07-.11-1.72.82-2.84,1.12-4.03-4.38-9.54-5.06-15.33-5.66-.79-1.3-2.1-2.29-3.78-2.82-.36-.11-.7-.37-.98-.62-1.56-1.47-3.35-2.21-5.57-1.73-1.05-1.38-2.68-2.02-3.8-3.3-.79-.9-1.9-1.07-3.05-.8-.63.14-1.25.33-1.79.48q-2.15-.96-5.6.38c-1.3-.54-2.58-1.35-4.11-1.5-.61-.06-.95-.64-1.31-1.1-1.63-2.09-2.01-2.2-4.65-1.48-.17.05-.38,0-.65,0-.34-.49-.69-1.05-1.08-1.55-.99-1.25-2.16-1.63-3.38-.62-2.01,1.65-3.95,1.17-6,.36-1.63-.64-3.3-1.2-4.55-2.54-.45-.48-1.07-.71-1.73-.83-1.51-.29-2.68-1.23-3.88-2.11.06-1.51.69-2.65,1.62-3.57.99-.11,1.66.34,2.31.73,1.62.97,3.07.97,4.3-1.31.15-.29.28-.58.47-.99,2.84.44,5-.66,6.32-3.16ZM8.88,145.47c1.98-.1,3.35-1.12,4.45-2.57.16-.21.31-.5.52-.57,1.67-.52,2.64-2.06,4.03-2.84,1.76-1,2.5-2.32,2.84-4.24,1.1-.14,2.3,0,3.3-.75.93-.7,1.39-1.69,1.97-2.77,1.63-.64,2.82-1.87,3.6-3.68,2.56-.08,3.11-2.06,3.62-4.21,1.02.02,2.08.09,2.82-.82.68-.83.84-1.88,1.24-2.96,1.86-.8,3.52-2.02,4.93-3.58.45-.5,1.09-.69,1.73-.82,1.65-.32,2.67-1.27,2.88-2.97.09-.71.46-1.18.99-1.6,1.47-1.16,2.08-2.95,3.18-4.39.37-.47.52-1.18.52-1.85.01-.72.09-1.43.39-2.26,1.93-.9,3.3-2.49,4.1-4.58.24-.64.84-.95,1.43-1.26,1.56-.82,2.65-2.08,3.31-3.7.25-.61.49-1.22.97-1.68,1.23-1.2,2.02-2.67,2.44-4.17.35-.4.68-.38,1-.42,1.84-.2,2.79-1.05,3.09-2.89.16-.96.25-1.95.18-2.91-.22-2.87,1.27-4.9,3.08-6.93.78.92,1.4,1.83,1.76,2.87.6,1.76,1.5,3.02,3.6,3.33,1.25.19,2.66.64,3.42,1.97.12.21.39.44.61.46,2.64.28,4.28,2.95,7.05,2.95.33,0,.74.31.97.59.67.81,1.58,1.1,2.62,1.27.54.97,1.32,1.7,2.65,1.73-.31.53-.54.91-.75,1.3-1.17,2.12-1.62,2.32-4.06,1.81-1.12-.24-1.69,0-2.23,1.02-.29.57-.49,1.2-.73,1.81-.59.32-.97-.19-1.4-.39-2.71-1.28-4.52-.66-6,1.97-.47.84-.59,1.85-1.25,2.56-.76-.02-.54-.63-.69-.99.09-.62.82-.85.9-1.69.04-.52-.49-1.14-1.28-1.25-.97-.14-1.9.45-2.25,1.47-.24.69-.28,1.39-.07,2.11.23.8.4,1.62.63,2.54-1.39.5-2.67,1.15-2.38,3.08-2.05.75-2.5,2.4-2.51,4.36-.01,2.15,0,4.28.96,6.25-.69,1.08-2.09,1.04-2.64,2.06-.53.98-.07,2.06-.24,3.03q-2.3,1.83-2.34,4.61c-.42.75-1.23,1.07-1.93,1.54-1.89,1.3-2.01,2.42-.38,4.09.27.27.67.42,1.15.7-1.1.72-2.2.59-2.62,1.51-.39.87-.04,1.63.55,2.37-1.18,1.68-2.12,3.45-2.91,5.29-.86,2.03-.27,2.94,1.89,3.05,2.65.14,5.29.45,7.95.39.67-.01,1.26.27,1.85.54,1.35.61,2.71.89,4.14.29.49-.2,1.02-.18,1.65.04-.72.95-1.83,1.14-2.8,1.8-1.43-1.68-3.16-1.38-4.94-.69-1.45.56-2.9,1.1-4.26,1.62-.62-.23-.68-.71-.87-1.1-.8-1.66-1.85-2.16-3.65-1.64-1.05.31-2.09.7-3.09,1.17-1.34.62-2.6,1.03-4.06.25-.97-.52-2.04-.13-3.02.21-.91.32-1.8.73-2.73.86-3.37-1.93-2.59-1.74-5.82-.1-1.39.71-2.74,1.47-4.42.67-.78-.37-1.67.04-2.44.37-1.24.55-2.45,1.18-3.69,1.75-.58.27-1.11.7-1.84.59-.57-.27-.69-.9-.99-1.37-.87-1.4-2.09-1.81-3.66-1.53-1.1.2-2.14.54-3.1,1.1-2.58,1.46-5.23,2.6-8.31,2.16-.92-.13-1.76.44-2.86.47-.79-.49-1.73-1.09-3.12-.8.92-1.68,1.35-3.25,1.37-5.03ZM63.32,139.16c.2.75.32,1.17.42,1.58-.34.24-.62.16-.87-.09-.24-.56.37-.75.45-1.5ZM174.71,177.32c-1.88-1.08-3.45-.75-4.92.69-.27.27-.62.47-.92.72-.91.78-1.84.9-2.82.12-.25-.2-.54-.37-.81-.54-1.22-.76-2.44-.77-3.69-.07-.34.19-.67.39-.99.62-1.39.95-2.8,1.51-4.56.95-.76-.24-1.7-.15-2.52,0-1.28.24-2.56.38-3.86.24-.88-.09-1.66.32-2.45.57-1.15.37-2.26.54-3.41.01-.86-.39-1.8-.3-2.69-.14-1.46.27-2.9.69-4.4.8-.83.06-1.35.72-1.91,1.26-1.58,1.53-2.11,1.51-3.7-.04-.73-.72-1.37-1.53-2.51-1.73-1.45-.27-2.69.06-3.85.92-.99.72-1.92,1.54-3.07,1.87-.57-.01-.94-.29-1.26-.62-1.08-1.14-2.39-1.17-3.78-.74-.49.16-.97.38-1.48.49-1.09.25-2.17.37-3.22-.24-1.25-.71-2.48-.52-3.72.1-1.38.7-2.72,1.55-4.31,1.76-.69-.09-1.14-.59-1.66-.97-.94-.69-1.94-.92-3.11-.64-2.6.61-5.1,1.48-7.47,2.7-.52.27-1.03.54-1.45.75-1.07-.06-1.6-1.07-2.59-1.06-.92,0-1.8.25-2.62.4-.54-.06-.91-.32-1.32-.52-.8-.42-1.62-.41-2.42,0-.58.29-1.16.59-1.73.89-1.26.67-2.44.72-3.6-.29-1.36-1.19-3.02-1.3-4.57-.61-2.09.92-4.2,1.62-6.48,1.91-1.25.16-2.44.85-3.65,1.28-1.04.37-2.07.76-3.28.87-.21-.13-.52-.26-.74-.47-1.1-1.05-2.4-1.22-3.8-.9-.51.11-1.02.34-1.53.2-1.29-.37-2.39.05-3.51.62-1.56.8-3.14,1.11-4.84.21-1.06-.57-2.26-.48-3.4,0-.72.3-1.53.47-2.13.93-1.7,1.31-3.47,1.12-5.09.15-2.64-1.61-5.22-1.64-7.91-.27-1.16.59-2.46.56-3.63.25-1.38-.36-2.55-.06-3.76.47-1.45.63-2.93,1.06-4.49.29-.98-.49-1.91.02-2.84.24-.73.17-1.38.67-2.18.64q-.05-2.46-1.21-4.26c.49-1.91,1.63-3.97-.78-5.55.24-1.05.83-1.96.77-3.02-.07-1.16-1.05-1.72-1.73-2.5.66-1.68,2.61-3.18.51-5.11.85-1.8,1.79-3.63-.32-5.2.31-.59.6-1.09.83-1.62.82-1.89.57-2.55-1.4-3.55.41-1.01,1.55-1.85.92-3.19-.54-.7-1.4-.78-2.29-.9-.09-1.11.85-1.71,1.15-2.66,1.27.01,2.45-.29,3.73-.51,1.23,1.04,2.65,1.1,4.16.57.42-.15.84-.37,1.32-.29,3.5.55,6.48-.89,9.41-2.47.87-.47,1.75-.82,2.64-.8.65.28.75.85,1.02,1.28,1.2,1.88,2.36,2.3,4.44,1.43,1.37-.57,2.69-1.28,4.04-1.91.47-.22.94-.42,1.39-.62q3,.65,8.23-1.71c1.73,1.5,3.7,1.38,5.73.47,1.04-.47,2.03-.62,3.16-.06,1.16.57,2.39.14,3.58-.25,1.4-.47,2.69-1.29,4.17-1.49.56.31.57.9.82,1.32.88,1.45,1.81,1.88,3.43,1.36,1.97-.64,3.9-1.38,5.95-2.11,1.44,1.75,3.14,1.53,4.82.44,1.18-.77,2.28-1.02,3.62-.36,1,.49,2.14.49,3.23.1.79-.28,1.49-.16,2.24.19,1.06.49,2.18.83,3.2,1.43,1.02.6,2.21.74,3.37.85.68.06,1.31.24,1.7.82,1.68,2.46,3.97,2.65,6.56,1.81.18-.06.37-.1.57-.14.06-.01.13,0,.34,0,1.32,1.15,3.01,1.73,4.82,2.09,1.17.23,2.16.84,3.01,1.69.93.93,2.05,1.25,3.38,1.15,2.09-.16,4.13.39,6.18.67.9.12,1.79.33,2.71.34,2.15.03,4.18.8,6.33.97,1.56.11,2.77,1.36,4.29,1.78.36.2.46.6.67.92.55.79,1.31,1.1,2.21.7,1.05-.47,2.01-.27,2.99.19.7.32,1.45.64,2.2.75,1.33.16,2.49.54,3.52,1.47.77.69,1.74.82,2.74.35.29-.14.61-.19,1-.31,1.6,1.73,4.07,2.18,5.71,3.91.64.67,1.6.79,2.55.64,1.35-.2,2.7-.36,4.24-.56,1.25.99,2.85,1.04,4.49.8,1-.15,1.86.13,2.46.86,1.13,1.37,2.86,1.73,4.25,2.66.63.43,1.38.33,2.06-.01.51-.26,1-.57,1.53-.87,1.19,1.33,2.64,2.35,3.59,4.04-1.28.54-2.5.55-3.57-.06ZM252.67,151.81c-2,2.42-2.1,2.99-1.14,6.1-.21.74-1.26,1.12-1.06,2.37.1.21.34.67.53,1.15.32.77.24,1.52-.27,2.21-.54.73-1,1.55-1.64,2.18-2.29,2.26-2.47,4.86-1.4,7.85-1.23,1.12-2.13,2.44-.54,3.92,0,.27.04.41,0,.52-.87,2.04-1.36,4.17-1.48,6.38-.01.26-.06.56-.21.75-1.42,1.85-.9,3.79-.38,5.77.2.8.62,1.59.26,2.53-1.19-.4-2.21-1.1-3.22-1.78-2.29-1.53-4.65-2.82-7.54-2.79-.61,0-1.25-.32-1.84-.57-.72-.32-1.48-.65-2.24-.64-1.99.04-3.98.13-5.8-.87-2.09.48-4.07.18-6.01-.71-.58-.27-1.27.11-2.01.21-1.09-1.01-2.4-1.62-3.95-1.77-.9-.08-1.73-.54-2.52-1-1.2-.68-2.47-1.15-3.93-1.06-1.2-1.37-2.74-2.05-4.47-2.57-1.61-.49-3.07-1.32-4.85-1.2-.77.06-1.44-.52-2.11-.92-1.02-.6-2.08-1.03-3.31-1-1.18.03-2.32-.35-3.38-.82-1.4-.62-2.73-.79-3.88.03-.6.14-.95-.22-1.3-.2-1.95.14-3.09-.98-4.16-2.39-.58-.76-1.36-1.38-2.01-2.11-1.07-1.2-2.11-1.35-3.49-.61-.39.21-.74.49-1.04.67-1.74-.67-3.22-1.53-4.54-2.71-1.06-.95-2.39-.92-3.7-.77-.92.1-1.78.16-2.59-.49-.7-.57-1.58-.5-2.42-.31-1.33.31-2.69.44-4.29.48-1.29-2-3.98-2.26-5.67-4.01-.56-.58-1.38-.71-2.19-.52-.5.12-1,.24-1.6.39-1.2-1.13-2.69-1.66-4.36-1.81-.51-.04-1.03-.22-1.48-.46-1.37-.71-2.81-.97-4.39-.86-.51-.62-1.1-1.05-1.94-1.15-.49-.06-.97-.35-1.43-.6-1.73-.95-3.58-1.33-5.54-1.64-2.29-.36-4.62-.53-6.91-.97-2.13-.41-4.33-.89-6.56-.62-.72.08-1.26-.2-1.75-.67-1.35-1.3-3-2.01-4.83-2.38-.95-.19-1.87-.5-2.64-1.17-1.02-.9-2.24-.97-3.5-.67-.38.09-.75.2-1.12.32-1.07.37-1.91.07-2.56-.83-.98-1.35-2.24-2.12-3.98-2.03-.56.03-1.21-.13-1.69-.41-1.91-1.11-4.13-1.55-5.94-2.88-.94-.69-2.03-1.12-3.21-1.35-.82-.15-1.6-.53-2.36-.87-1.48-.64-2.97-.97-4.53-.37-.76.29-1.42.04-2.06-.27-1.2-.55-2.4-.95-3.76-.7-.84.16-1.5-.18-1.86-1.04-.82-2-.97-2.06-2.92-1.39,0,.01,0,.04,0,.05-.01,0-.04,0-.05-.01-.06.11-.12.22-.21.38-.14-.37-.04-.44.21-.38,0,0,0-.02.01-.03,0,0,.02,0,.03,0-.22-.85.52-1.22.92-1.74.65-.83,1.38-1.6.96-2.7,2.73-1.81,2.72-2.35-.06-5.64,1.93-1.1,3.37-2.53,2.83-5.03,2.04-1.02,2.59-2.72,2.41-4.73.19-.16.33-.3.49-.4,2.51-1.55,2.67-2.05,1.85-4.9-.52-1.83-.8-3.68-.34-5.72.81-.14,1.81.14,2.4-.79.5-.8-.04-1.66.24-2.53,1.14-.27,2.83.29,2.83-1.75.61-.15.85.34,1.21.56.11.06.23.13.32.21,1.39,1.26,3.43,1.29,4.82,2.44,1.39,1.15,2.99,1.8,4.57,2.53.52.24,1.1.37,1.66.54,2.45.78,4.84,1.06,7.04-1.03,1.2,2.78,3.22,3.21,5.63,2.26.62.72,1.09,1.34,1.63,1.9.53.55,6.07,2.54,6.83,2.51,1.07-.03,1.98-.57,2.99-1.1,1.65,1.05,3.41.7,5.22.08.99,1.46,2.62,2.13,3.75,3.39.69.77,1.68,1.03,2.69.82,1.15-.24,2.01.19,2.86.87.87.68,1.74,1.35,2.84,1.67.72.21,1.19.73,1.57,1.37.84,1.4,2.08,1.88,3.67,1.55.57-.11,1.14-.32,1.73-.09,1.81.75,3.75,1,5.6,1.57,1.6.49,2.98,1.25,4.11,2.5,1.19,1.33,2.62,1.89,4.27,1.18.47.09.57.42.75.69.57.9,1.4,1.12,2.37.83.57-.17,1.1-.36,1.71-.32,2.51.18,2.51.17,4.61-.6,1.31.87,3.1,1.08,4.09,2.61,1.93.59,3.56,1.78,5.37,2.62.88.42,1.92.14,2.97-.19.85,1.58,1.96,2.64,3.93,1.62,1.63,1.61,3.41,1.84,5.3.55.75.4,1.45.72,2.11,1.13,1.62,1.05,3.39,1.43,5.3,1.68,1.62.21,3.27.59,4.81,1.4,2.13,1.1,4.42,1.9,6.91,1.76,1.45-.09,2.85.16,4.17.77,1.44.67,3.01.79,4.54,1.04.85.14,1.68.32,2.39.78,1.33.85,2.74,1.15,4.33.78,1.8,1.91,3.36.75,4.8-.47.62.09.77.59,1.08.89.72.69,1.53.95,2.51.77.64-.11,1.28-.29,1.93-.13,2.83.71,5.67.39,8.54.11,1.45,1.19,2.33,3.45,4.76,2.45,1.33,1.23,2.67,1.64,4.18.7.64-.39,1.28.22,1.88-.01.72-.14.98-.87,1.66-1.2.96-.09,1.96,0,2.87.75.15.87-.14,1.61-.7,2.29Z"></path><path class="cls-2" d="M243.12,139.99c-2.06-1.62-3.9-3.45-4.59-6.12-.21-.83-.72-1.35-1.56-1.57-.44-.11-.87-.26-1.3-.39-1.58-.49-2.64-1.4-2.59-3.19.04-1.1-.54-1.69-1.5-2-.68-.22-1.4-.37-1.98-.8-.94-.7-1.88-1.3-3.09-1.52-.86-.16-1.68-.81-1.54-1.75.24-1.63-.57-3.16-.15-4.81-.82-.17-1.5-.32-2.19-.47-2.59-.57-3.14-1.2-3.11-3.84-.67-.47-1.56-.64-2.09-1.37-1.34-1.86-2.97-3.37-5.02-4.44-.58-.31-1.01-.82-1.28-1.43-.34-.8-.87-1.45-1.52-1.99-.81-.67-1-1.54-.66-2.46.25-.68.41-1.36.51-2.06.12-.83.54-1.42,1.28-1.84.27-.15.8-.1.77-.72-2.14-.98-4.41-1.5-6.74-1.66-.76-.06-1.43-.17-1.94-.72-.77-.85-1.78-1.33-2.8-1.73-2.35-.94-3.93-2.48-4.17-5.1-.57-.14-1.07-.27-1.57-.4-.51-.14-.95-.41-1.15-.62-.57-.87-.37-1.72-.67-2.39-4.32-1.59-3.85-1.25-4.64-4.5-1.04-.78-2.44-1.11-3.3-2.25-.79-1.05-1.76-1.86-3.04-2.34-1.24-.48-1.66-1.26-1.37-2.46.33-1.38.11-2.69-.1-3.99-1.16-.95-2.14-2.26-3.4-2.66-2.09-.67-3.51-2.18-5.22-3.31-1.33-.9-1.93-2.26-1.35-3.92.13-.37.24-.78.08-1.15-.91-2.06-1.76-4.16-3.73-5.62-.16,1.25-.56,2.31-1.91,2.36-1.73.06-2.91.93-3.95,2.18-.54.65-1.11,1.28-1.86,1.71-.42.24-.68.59-.85,1.02-.91,2.41-2.63,3.97-5.17,4.76-1.24,3.18-3.86,4.1-7.17,3.99-.94,2.44-2.62,4-5.32,3.86-.93,1.88-2.46,2.62-4.22,2.64-2.03.03-3.56,1-5.06,2.02-.62,2.26-1.15,2.72-3.39,2.82-1.15.05-2.3,0-3.39,0-.32.58-.53.98-.77,1.36-.28.44-.54.9-.87,1.29-.9,1.02-1.81,1.17-2.94.48-.54-.33-1.02-.75-1.51-1.12-1.64,3.87-4.96,3.45-8.31,3.33-.29,1.84-1.83,2.31-3.33,2.79-1.17.37-2.35.69-3.49,1.02-1.35,3.39-4.46,2.87-7.22,3.35-1.32,2.5-3.48,3.6-6.32,3.16-.19.41-.32.7-.47.99-1.23,2.29-2.68,2.28-4.3,1.31-.65-.39-1.32-.85-2.31-.73-.93.92-1.56,2.06-1.62,3.57,1.2.89,2.37,1.82,3.88,2.11.66.12,1.28.35,1.73.83,1.25,1.33,2.92,1.89,4.55,2.54,2.06.81,4,1.29,6-.36,1.22-1,2.39-.63,3.38.62.39.5.74,1.05,1.08,1.55.27,0,.48.04.65,0,2.64-.72,3.02-.6,4.65,1.48.37.46.7,1.04,1.31,1.1,1.53.15,2.8.96,4.11,1.5q3.45-1.34,5.6-.38c.54-.15,1.16-.34,1.79-.48,1.15-.27,2.26-.1,3.05.8,1.13,1.28,2.75,1.93,3.8,3.3,2.21-.47,4.01.27,5.57,1.73.28.26.62.51.98.62,1.68.52,2.99,1.51,3.78,2.82,5.79.6,11.29,1.28,15.33,5.66,1.12-.29,1.77-1.23,2.84-1.12,1.28.13,1.35,1.4,1.91,2.14.96-.1,1.81-.15,2.64.06.54.14,1.07.12,1.51-.18,1.59-1.08,3.05-.82,4.49.29.15.11.34.24.52.25,1.45.06,2.36.9,2.99,2.14,1.14.19,2.21.49,3.06,1.25.85.77,1.68,1.04,2.82.57,1.11-.45,2.18-.19,2.94.85.19.26.42.49.67.77,1.66-.68,2.63.79,3.9,1.23.24-.07.44-.1.61-.18,1.48-.69,2.78-.55,4.22.34,1.68,1.03,3.37,2.25,5.57,1.93.35-.05.74.2,1.12.28,1.84.39,3.61.95,5.3,1.85.85.45,1.85.88,2.77.86,3.31-.08,6.38.92,9.51,1.73,1.88.48,3.86.58,5.55,1.7.41.27.87.43,1.28.21,1.29-.7,2.36-.27,3.3.59,2.89-2.06,3.37-2.01,5.73.42,1.11-.06,2.26-.21,3.43.1,2.16.59,4.36.62,6.54-.03,1.26-.37,2.29.02,3.15.97.48.52.87,1.14,1.62,1.52,1.29-.38,2.45.09,3.5,1.02.76-.76,1.63-1.17,2.68-1.45-.95-2.82-2.88-4.51-4.95-6.13ZM138.3,105.04c-.74.3-1.26-.11-1.6-.72-.34-.62-.62-1.28-.92-1.93-.16-.35-.31-.71-.52-1.2-.89-.23-1.61-.61-2.14-1.33-1.36-1.81-2.71-3.63-3.88-5.57-.34-.55-.6-1.14-.67-1.77,1-1.44,1.64-1.49,2.62-.21.62.82,1,1.8,1.8,2.57.18-.79.09-1.63.82-2.14,1.1-.41,1.66.27,1.86,1.13.68,2.97,1.98,5.72,2.93,8.6.1.31.25.6.31.92.12.66.14,1.35-.61,1.66ZM177.3,121.36q-1.65-.32-2.67-1.45c0-.76.22-1.37,1.1-1.51.76-.12,1.76.37,2.12,1.04.29.54.19.91-.55,1.92ZM177.71,93.31c-.47.19-.9-.03-1.21-.4-.64-.75-1.04-1.64-1.43-2.53-.49-1.12-.87-2.3-2.18-2.79-.22-.09-.4-.33-.56-.53-2.38-3.08-4.61-6.26-6.45-9.7-.69-1.28-.56-1.55.67-2.57.9-.14,1.22.56,1.58,1.16.85,1.42,1.66,2.87,2.8,4.28.16-1.02-.12-1.83-.21-2.65-.09-.8.14-1.59.88-2.03.57-.33,1.12-.16,1.6.47.29,3.9,1.91,7.5,3.37,11.16.5,1.26,1.03,2.51,1.53,3.76.14.36.24.74.31,1.12.09.58-.16,1.03-.7,1.25ZM207.85,128.08c-.69.34-1.45.03-2.03-1-.67-1.17-1.49-2.29-1.66-3.68-.14-1.15.47-1.87,1.45-1.83.58.02,1.07.29,1.15.85.19,1.32,1.02,2.36,1.4,3.6.36,1.19.31,1.76-.32,2.06ZM212.79,127.1c-.04.57-.34.97-.94,1.07-.66.11-1.15-.15-1.38-.78-.38-.98-.51-2.01-.5-3.46,0-.04,0-.5.06-.95.07-.58.42-.95.99-1.04.59-.09,1.1.23,1.23.74.34,1.45.65,2.92.54,4.42Z"></path><path class="cls-4" d="M253.38,149.52c-.91-.76-1.91-.85-2.87-.75-.68.34-.94,1.07-1.66,1.2-.6.24-1.24-.38-1.88.01-1.5.94-2.84.52-4.18-.7-2.44,1-3.32-1.26-4.76-2.45-2.87.28-5.71.6-8.54-.11-.65-.16-1.29.01-1.93.13-.97.18-1.79-.08-2.51-.77-.31-.29-.46-.8-1.08-.89-1.44,1.22-3,2.38-4.8.47-1.6.37-3.01.07-4.33-.78-.72-.47-1.55-.64-2.39-.78-1.53-.25-3.1-.37-4.54-1.04-1.32-.62-2.72-.86-4.17-.77-2.49.14-4.78-.65-6.91-1.76-1.54-.81-3.19-1.18-4.81-1.4-1.91-.25-3.68-.64-5.3-1.68-.65-.42-1.36-.73-2.11-1.13-1.89,1.29-3.68,1.06-5.3-.55-1.98,1.02-3.09-.04-3.93-1.62-1.05.32-2.08.6-2.97.19-1.81-.84-3.44-2.03-5.37-2.62-.99-1.53-2.78-1.74-4.09-2.61-2.1.77-2.1.78-4.61.6-.61-.04-1.15.14-1.71.32-.97.29-1.81.07-2.37-.83-.17-.27-.27-.6-.75-.69-1.66.72-3.08.16-4.27-1.18-1.12-1.25-2.51-2.01-4.11-2.5-1.86-.57-3.8-.82-5.6-1.57-.59-.24-1.16-.03-1.73.09-1.59.33-2.83-.16-3.67-1.55-.38-.64-.85-1.16-1.57-1.37-1.1-.32-1.97-.99-2.84-1.67-.85-.67-1.71-1.11-2.86-.87-1,.21-1.99-.06-2.69-.82-1.13-1.26-2.77-1.93-3.75-3.39-1.81.62-3.58.97-5.22-.08-1.02.52-1.92,1.07-2.99,1.1-.76.03-6.3-1.96-6.83-2.51-.54-.56-1.01-1.18-1.63-1.9-2.41.95-4.44.52-5.63-2.26-2.2,2.09-4.59,1.81-7.04,1.03-.56-.17-1.14-.29-1.66-.54-1.58-.73-3.18-1.38-4.57-2.53-1.38-1.15-3.43-1.18-4.82-2.44-.09-.09-.21-.15-.32-.21-.37-.22-.6-.71-1.21-.56,0,2.03-1.69,1.48-2.83,1.75-.27.87.26,1.73-.24,2.53-.59.92-1.59.64-2.4.79-.45,2.03-.18,3.89.34,5.72.82,2.85.66,3.35-1.85,4.9-.16.1-.3.24-.49.4.19,2.01-.37,3.71-2.41,4.73.54,2.5-.9,3.93-2.83,5.03,2.78,3.29,2.79,3.83.06,5.64.42,1.1-.31,1.87-.96,2.7-.41.52-1.15.9-.92,1.74,1.95-.67,2.1-.61,2.92,1.39.36.86,1.02,1.2,1.86,1.04,1.36-.25,2.56.15,3.76.7.64.3,1.3.56,2.06.27,1.55-.6,3.05-.27,4.53.37.77.34,1.55.72,2.36.87,1.18.23,2.27.65,3.21,1.35,1.81,1.33,4.03,1.77,5.94,2.88.48.28,1.13.44,1.69.41,1.74-.09,2.99.69,3.98,2.03.65.9,1.49,1.2,2.56.83.37-.12.74-.24,1.12-.32,1.26-.29,2.47-.23,3.5.67.77.67,1.68.97,2.64,1.17,1.83.37,3.48,1.07,4.83,2.38.49.47,1.03.75,1.75.67,2.23-.27,4.43.21,6.56.62,2.29.44,4.62.62,6.91.97,1.96.31,3.8.69,5.54,1.64.45.25.93.54,1.43.6.84.11,1.43.54,1.94,1.15,1.58-.11,3.02.15,4.39.86.45.24.97.42,1.48.46,1.66.15,3.15.68,4.36,1.81.59-.14,1.1-.27,1.6-.39.82-.19,1.63-.06,2.19.52,1.69,1.76,4.38,2.01,5.67,4.01,1.61-.04,2.96-.17,4.29-.48.85-.19,1.72-.26,2.42.31.81.64,1.66.59,2.59.49,1.31-.14,2.64-.18,3.7.77,1.31,1.18,2.79,2.04,4.54,2.71.29-.19.65-.47,1.04-.67,1.38-.74,2.42-.59,3.49.61.65.73,1.43,1.35,2.01,2.11,1.07,1.41,2.21,2.54,4.16,2.39.36-.02.7.34,1.3.2,1.15-.82,2.48-.64,3.88-.03,1.06.47,2.2.85,3.38.82,1.23-.04,2.29.39,3.31,1,.67.39,1.35.97,2.11.92,1.78-.12,3.25.71,4.85,1.2,1.73.52,3.27,1.2,4.47,2.57,1.46-.09,2.73.38,3.93,1.06.8.46,1.62.92,2.52,1,1.55.15,2.86.76,3.95,1.77.75-.1,1.43-.47,2.01-.21,1.94.89,3.92,1.19,6.01.71,1.83,1,3.81.9,5.8.87.76-.01,1.51.32,2.24.64.59.25,1.23.58,1.84.57,2.89-.04,5.25,1.25,7.54,2.79,1.01.67,2.03,1.38,3.22,1.78.36-.94-.06-1.73-.26-2.53-.52-1.98-1.04-3.92.38-5.77.15-.19.19-.49.21-.75.11-2.21.6-4.34,1.48-6.38.05-.11,0-.25,0-.52-1.58-1.48-.68-2.79.54-3.92-1.07-2.99-.89-5.6,1.4-7.85.64-.63,1.1-1.45,1.64-2.18.51-.69.58-1.43.27-2.21-.19-.48-.43-.94-.53-1.15-.2-1.25.85-1.63,1.06-2.37-.96-3.12-.86-3.68,1.14-6.1.56-.68.85-1.43.7-2.29ZM91.14,133.59c-1.32-.06-2.06-1.18-3.09-1.8-.59-.4-1.29.19-2.21-.52-.5-.48-.68-1.41.02-2.29,1.02-1.29,2.19-.39,3.38.11.09-.94-.4-1.66-.27-2.44.1-.62.32-1.13,1.01-1.24.57-.09,1.12.11,1.27.66.56,2.03,1.68,3.92,1.65,6.04-.58.62-1,1.2-1.76,1.48ZM178.9,154.64c-.7.28-1.28,0-1.67-.62-.89-1.43-1.65-2.94-1.94-4.61-.25-1.47.36-2.01,2.15-1.93.58,1.83,1.3,3.68,2.06,5.52.26.63.14,1.33-.6,1.64ZM184.28,146.65c-.25,1.73-.67,3.42-1.2,5.09-.2.65-.57,1.15-1.3,1.28-.82-.09-1.12-.62-1.1-1.34.05-1.96.5-3.85,1.19-5.67.33-.88,1.03-1.23,1.65-.97.73.29.86.94.76,1.61ZM211.62,160.28q.3.9.09,2.13c-1.93.52-3.9.31-5.8-.32-.92-.3-.98-.72-.61-2.28,1.88-.15,3.65.57,5.62.19-.78-.54-1.46-1-2.14-1.48-.65-.46-1.17-1.04-1.35-1.83-.12-.54-.01-1.06.48-1.38.56-.36,1.13-.3,1.58.2.66.75,1.52,1.2,2.29,1.8,1.41,1.09,1.35,1.84-.15,2.97Z"></path><path class="cls-2" d="M91.51,87.52c-1.04-.17-1.94-.46-2.62-1.27-.24-.29-.65-.59-.97-.59-2.77,0-4.41-2.67-7.05-2.95-.22-.02-.49-.25-.61-.46-.76-1.33-2.16-1.78-3.42-1.97-2.1-.32-2.99-1.57-3.6-3.33-.37-1.05-.98-1.95-1.76-2.87-1.81,2.03-3.3,4.06-3.08,6.93.07.96-.02,1.95-.18,2.91-.3,1.85-1.25,2.69-3.09,2.89-.32.04-.65.01-1,.42-.42,1.5-1.21,2.97-2.44,4.17-.48.47-.72,1.07-.97,1.68-.66,1.62-1.76,2.87-3.31,3.7-.59.31-1.18.62-1.43,1.26-.8,2.09-2.17,3.68-4.1,4.58-.29.84-.37,1.55-.39,2.26,0,.67-.16,1.38-.52,1.85-1.1,1.44-1.71,3.23-3.18,4.39-.53.42-.9.89-.99,1.6-.21,1.7-1.23,2.64-2.88,2.97-.64.13-1.28.32-1.73.82-1.41,1.55-3.07,2.78-4.93,3.58-.4,1.08-.56,2.13-1.24,2.96-.74.91-1.81.84-2.82.82-.51,2.16-1.06,4.13-3.62,4.21-.77,1.81-1.97,3.05-3.6,3.68-.58,1.07-1.04,2.07-1.97,2.77-1,.75-2.19.61-3.3.75-.34,1.92-1.08,3.25-2.84,4.24-1.38.78-2.36,2.32-4.03,2.84-.21.06-.37.36-.52.57-1.1,1.44-2.46,2.46-4.45,2.57-.02,1.78-.44,3.35-1.37,5.03,1.4-.29,2.34.31,3.12.8,1.1-.03,1.93-.6,2.86-.47,3.08.44,5.73-.69,8.31-2.16.96-.55,1.99-.9,3.1-1.1,1.58-.28,2.79.12,3.66,1.53.3.47.42,1.1.99,1.37.73.11,1.26-.33,1.84-.59,1.24-.57,2.45-1.2,3.69-1.75.77-.34,1.66-.75,2.44-.37,1.68.8,3.03.04,4.42-.67,3.23-1.64,2.45-1.83,5.82.1.93-.13,1.82-.54,2.73-.86.99-.34,2.06-.73,3.02-.21,1.46.78,2.72.37,4.06-.25,1-.47,2.03-.86,3.09-1.17,1.8-.52,2.85-.02,3.65,1.64.19.39.25.87.87,1.1,1.35-.52,2.81-1.06,4.26-1.62,1.78-.69,3.51-.98,4.94.69.97-.66,2.08-.85,2.8-1.8-.62-.21-1.16-.24-1.65-.04-1.43.6-2.79.32-4.14-.29-.59-.27-1.18-.55-1.85-.54-2.66.06-5.3-.25-7.95-.39-2.16-.11-2.75-1.02-1.89-3.05.79-1.84,1.73-3.61,2.91-5.29-.59-.75-.95-1.5-.55-2.37.42-.92,1.51-.8,2.62-1.51-.48-.29-.88-.43-1.15-.7-1.63-1.67-1.51-2.79.38-4.09.7-.47,1.5-.79,1.93-1.54q.04-2.78,2.34-4.61c.16-.97-.29-2.05.24-3.03.55-1.02,1.96-.98,2.64-2.06-.97-1.96-.97-4.1-.96-6.25,0-1.96.46-3.62,2.51-4.36-.29-1.93.99-2.58,2.38-3.08-.23-.92-.4-1.74-.63-2.54-.21-.72-.16-1.42.07-2.11.35-1.02,1.28-1.61,2.25-1.47.79.11,1.32.72,1.28,1.25-.07.84-.81,1.07-.9,1.69.15.36-.06.97.69.99.66-.71.78-1.72,1.25-2.56,1.48-2.63,3.3-3.25,6-1.97.43.2.81.71,1.4.39.24-.61.44-1.23.73-1.81.54-1.03,1.1-1.26,2.23-1.02,2.44.52,2.88.32,4.06-1.81.21-.39.44-.77.75-1.3-1.33-.03-2.11-.75-2.65-1.73ZM56.04,133.24c-.61,1.18-1.54,2.1-2.77,2.62-.95.41-1.31-.44-1.78-1.17-1.12,1.03-1.72,2.52-3.25,3.21-1.23-.73-1.46-1.16-.92-2.11.83-1.47,1.83-2.83,3.01-4.05.49-.51,1.1-.65,1.53-.49.81.32.76.93.99,1.39.26-.09.45-.11.6-.2.38-.24.71-.57,1.12-.75.43-.17.9-.11,1.25.27.35.37.43.86.22,1.27ZM71.08,100.46c-.16.2-.36.42-.59.49-2.89,1.07-5.8,2.05-8.7,2.27-.62-.42-.82-.81-.86-1.25.3-.97,1.14-1.24,1.93-1.48,2.16-.66,4.33-1.25,6.49-1.88.38-.11.77-.15,1.15-.02.83.27,1.12,1.18.58,1.86ZM71.15,95.85c-.9.2-1.68.92-2.5,1.43-.77.47-1.51,1-2.45,1.02-.44-.21-.77-.49-.92-.97.06-.53.31-.96.71-1.32,1.4-1.27,3-2.24,4.61-3.2,1.03-.62,1.66-.34,2.59.91-.27,1.21-.82,1.86-2.04,2.14Z"></path><path class="cls-4" d="M174.69,173.35c-.54.31-1.02.62-1.53.87-.67.34-1.43.44-2.06.01-1.39-.92-3.12-1.29-4.25-2.66-.6-.73-1.47-1.01-2.46-.86-1.63.24-3.24.19-4.49-.8-1.54.2-2.89.36-4.24.56-.95.14-1.91.03-2.55-.64-1.64-1.73-4.11-2.19-5.71-3.91-.39.11-.72.17-1,.31-1,.47-1.97.34-2.74-.35-1.02-.92-2.19-1.3-3.52-1.47-.75-.1-1.5-.42-2.2-.75-.99-.45-1.94-.66-2.99-.19-.9.4-1.66.09-2.21-.7-.22-.32-.32-.72-.67-.92-1.52-.42-2.73-1.67-4.29-1.78-2.15-.16-4.18-.94-6.33-.97-.92,0-1.81-.21-2.71-.34-2.05-.28-4.09-.83-6.18-.67-1.33.1-2.44-.22-3.38-1.15-.85-.85-1.84-1.46-3.01-1.69-1.81-.35-3.5-.94-4.82-2.09-.21,0-.28,0-.34,0-.19.04-.39.07-.57.14-2.59.85-4.87.66-6.56-1.81-.39-.57-1.02-.75-1.7-.82-1.17-.11-2.35-.24-3.37-.85-1.02-.59-2.14-.94-3.2-1.43-.75-.35-1.45-.47-2.24-.19-1.09.39-2.23.39-3.23-.1-1.34-.66-2.44-.41-3.62.36-1.68,1.09-3.38,1.3-4.82-.44-2.05.73-3.98,1.48-5.95,2.11-1.62.52-2.54.09-3.43-1.36-.26-.42-.27-1.01-.82-1.32-1.48.2-2.77,1.02-4.17,1.49-1.19.39-2.42.82-3.58.25-1.13-.56-2.12-.41-3.16.06-2.03.92-4,1.04-5.73-.47q-5.23,2.36-8.23,1.71c-.45.2-.92.4-1.39.62-1.35.64-2.67,1.34-4.04,1.91-2.07.87-3.24.45-4.44-1.43-.27-.43-.37-1-1.02-1.28-.89-.02-1.77.33-2.64.8-2.93,1.58-5.91,3.02-9.41,2.47-.48-.08-.9.14-1.32.29-1.5.54-2.92.47-4.16-.57-1.28.21-2.46.52-3.73.51-.31.95-1.24,1.55-1.15,2.66.9.12,1.76.2,2.29.9.63,1.34-.51,2.18-.92,3.19,1.98,1,2.23,1.66,1.4,3.55-.23.53-.52,1.02-.83,1.62,2.11,1.57,1.17,3.4.32,5.2,2.1,1.93.15,3.43-.51,5.11.68.78,1.66,1.34,1.73,2.5.06,1.06-.53,1.97-.77,3.02,2.41,1.58,1.28,3.64.78,5.55q1.16,1.81,1.21,4.26c.8.02,1.45-.47,2.18-.64.93-.22,1.86-.74,2.84-.24,1.55.77,3.03.34,4.49-.29,1.21-.53,2.39-.82,3.76-.47,1.18.31,2.47.34,3.63-.25,2.69-1.38,5.27-1.35,7.91.27,1.62.97,3.39,1.16,5.09-.15.59-.46,1.41-.63,2.13-.93,1.13-.47,2.34-.56,3.4,0,1.7.9,3.27.59,4.84-.21,1.12-.57,2.22-1,3.51-.62.5.14,1.02-.09,1.53-.2,1.4-.32,2.71-.15,3.8.9.22.21.53.34.74.47,1.21-.11,2.24-.51,3.28-.87,1.22-.43,2.4-1.11,3.65-1.28,2.29-.29,4.39-1,6.48-1.91,1.55-.69,3.21-.58,4.57.61,1.16,1.01,2.34.96,3.6.29.57-.3,1.15-.59,1.73-.89.8-.41,1.63-.42,2.42,0,.41.21.78.47,1.32.52.82-.15,1.7-.39,2.62-.4,1,0,1.52,1,2.59,1.06.42-.21.93-.49,1.45-.75,2.37-1.22,4.87-2.09,7.47-2.7,1.17-.27,2.17-.05,3.11.64.52.38.97.88,1.66.97,1.59-.21,2.92-1.05,4.31-1.76,1.24-.62,2.47-.81,3.72-.1,1.05.6,2.13.49,3.22.24.5-.11.98-.34,1.48-.49,1.39-.43,2.69-.4,3.78.74.32.34.69.61,1.26.62,1.15-.33,2.08-1.15,3.07-1.87,1.15-.85,2.39-1.18,3.85-.92,1.14.21,1.78,1.01,2.51,1.73,1.6,1.55,2.13,1.56,3.7.04.57-.54,1.08-1.2,1.91-1.26,1.5-.11,2.94-.53,4.4-.8.9-.16,1.83-.24,2.69.14,1.15.52,2.26.35,3.41-.01.8-.25,1.57-.66,2.45-.57,1.3.14,2.58,0,3.86-.24.82-.16,1.76-.25,2.52,0,1.76.57,3.17,0,4.56-.95.32-.22.65-.42.99-.62,1.25-.7,2.47-.69,3.69.07.27.17.56.34.81.54.98.77,1.91.66,2.82-.12.29-.26.64-.45.92-.72,1.48-1.44,3.04-1.78,4.92-.69,1.07.62,2.29.6,3.57.06-.95-1.69-2.4-2.71-3.59-4.04ZM26.19,162.73c-2.44,1.6-4.9,3.17-7.36,4.73-.87.56-1.76,1.08-2.54,1.56-1.48-.14-1.61-1.05-1.49-2.05-.31-.37-.65-.11-.95-.17-.96-.2-1.33-.77-1.1-1.67.29-1.15,2.99-3.34,4.21-3.37.18,0,.37.1.54.15.59.77.43,1.46-.16,2.11-.3.34-.61.67-.91,1.01-.21.18-.55.24-.57.59-.19.05-.42.13-.26.34.14.19.32,0,.45-.14.26-.11.58-.15.72-.46,2.72-1.63,5.45-3.25,8.17-4.87.87-.52,1.73-.97,2.56.11.28,1.14-.57,1.64-1.31,2.13ZM76.26,164.23c-.82,1.53-1.68,3.07-3.22,3.97-1.48-.16-1.37-1.17-1.28-2.16-.01.01-.04.02-.05.04v-.04c-.84.41-.9,1.69-2.21,1.81-.49.02-.84-.43-1.19-1.15.53-1.82,1.33-3.6,2.99-4.82,1.67.52,1.74.62,1.36,1.94-.1.34-.36.65-.2,1.02h.09s0,.02,0,.04c.51-.3.73-.83,1.05-1.29.41-.59.8-1.18,1.51-1.43,1.33.53,1.7,1.06,1.16,2.07Z"></path><path class="cls-5" d="M92.9,132.1c-.58.62-1,1.2-1.76,1.48-1.32-.06-2.06-1.18-3.09-1.8-.59-.4-1.29.19-2.21-.52-.5-.48-.68-1.41.02-2.29,1.02-1.29,2.19-.39,3.38.11.09-.94-.4-1.66-.27-2.44.1-.62.32-1.13,1.01-1.24.57-.09,1.12.11,1.27.66.56,2.03,1.68,3.92,1.65,6.04Z"></path><path class="cls-5" d="M211.62,160.28q.3.9.09,2.13c-1.93.52-3.9.31-5.8-.32-.92-.3-.98-.72-.61-2.28,1.88-.15,3.65.57,5.62.19-.78-.54-1.46-1-2.14-1.48-.65-.46-1.17-1.04-1.35-1.83-.12-.54-.01-1.06.48-1.38.56-.36,1.13-.3,1.58.2.66.75,1.52,1.2,2.29,1.8,1.41,1.09,1.35,1.84-.15,2.97Z"></path><path class="cls-5" d="M184.28,146.65c-.25,1.73-.67,3.42-1.2,5.09-.2.65-.57,1.15-1.3,1.28-.82-.09-1.12-.62-1.1-1.34.05-1.96.5-3.85,1.19-5.67.33-.88,1.03-1.23,1.65-.97.73.29.86.94.76,1.61Z"></path><path class="cls-5" d="M178.9,154.64c-.7.28-1.28,0-1.67-.62-.89-1.43-1.65-2.94-1.94-4.61-.25-1.47.36-2.01,2.15-1.93.58,1.83,1.3,3.68,2.06,5.52.26.63.14,1.33-.6,1.64Z"></path><path class="cls-5" d="M177.71,93.31c-.47.19-.9-.03-1.21-.4-.64-.75-1.04-1.64-1.43-2.53-.49-1.12-.87-2.3-2.18-2.79-.22-.09-.4-.33-.56-.53-2.38-3.08-4.61-6.26-6.45-9.7-.69-1.28-.56-1.55.67-2.57.9-.14,1.22.56,1.58,1.16.85,1.42,1.66,2.87,2.8,4.28.16-1.02-.12-1.83-.21-2.65-.09-.8.14-1.59.88-2.03.57-.33,1.12-.16,1.6.47.29,3.9,1.91,7.5,3.37,11.16.5,1.26,1.03,2.51,1.53,3.76.14.36.24.74.31,1.12.09.58-.16,1.03-.7,1.25Z"></path><path class="cls-5" d="M138.3,105.04c-.74.3-1.26-.11-1.6-.72-.34-.62-.62-1.28-.92-1.93-.16-.35-.31-.71-.52-1.2-.89-.23-1.61-.61-2.14-1.33-1.36-1.81-2.71-3.63-3.88-5.57-.34-.55-.6-1.14-.67-1.77,1-1.44,1.64-1.49,2.62-.21.62.82,1,1.8,1.8,2.57.18-.79.09-1.63.82-2.14,1.1-.41,1.66.27,1.86,1.13.68,2.97,1.98,5.72,2.93,8.6.1.31.25.6.31.92.12.66.14,1.35-.61,1.66Z"></path><path class="cls-5" d="M207.85,128.08c-.69.34-1.45.03-2.03-1-.67-1.17-1.49-2.29-1.66-3.68-.14-1.15.47-1.87,1.45-1.83.58.02,1.07.29,1.15.85.19,1.32,1.02,2.36,1.4,3.6.36,1.19.31,1.76-.32,2.06Z"></path><path class="cls-5" d="M212.79,127.1c-.04.57-.34.97-.94,1.07-.66.11-1.15-.15-1.38-.78-.38-.98-.51-2.01-.5-3.46,0-.04,0-.5.06-.95.07-.58.42-.95.99-1.04.59-.09,1.1.23,1.23.74.34,1.45.65,2.92.54,4.42Z"></path><path class="cls-5" d="M177.3,121.36q-1.65-.32-2.67-1.45c0-.76.22-1.37,1.1-1.51.76-.12,1.76.37,2.12,1.04.29.54.19.91-.55,1.92Z"></path><path class="cls-5" d="M26.19,162.73c-2.44,1.6-4.9,3.17-7.36,4.73-.87.56-1.76,1.08-2.54,1.56-1.48-.14-1.61-1.05-1.49-2.05-.31-.37-.65-.11-.95-.17-.96-.2-1.33-.77-1.1-1.67.29-1.15,2.99-3.34,4.21-3.37.18,0,.37.1.54.15.59.77.43,1.46-.16,2.11-.3.34-.61.67-.91,1.01-.21.18-.55.24-.57.59-.19.05-.42.13-.26.34.14.19.32,0,.45-.14.26-.11.58-.15.72-.46,2.72-1.63,5.45-3.25,8.17-4.87.87-.52,1.73-.97,2.56.11.28,1.14-.57,1.64-1.31,2.13Z"></path><path class="cls-5" d="M71.72,166.08v-.04s.04-.02.05-.03l-.05.06Z"></path><path class="cls-5" d="M72.49,164.92s-.02-.05-.02-.07h.09l-.06.07Z"></path><path class="cls-5" d="M72.67,163.82c-.1.34-.36.65-.2,1.02-.78.04-.7.65-.75,1.2-.84.41-.9,1.69-2.21,1.81-.49.02-.84-.43-1.19-1.15.53-1.82,1.33-3.6,2.99-4.82,1.67.52,1.74.62,1.36,1.94Z"></path><path class="cls-5" d="M71.77,166.02v.03s-.04.02-.05.04l.05-.06Z"></path><path class="cls-5" d="M72.55,164.85s0,.02,0,.04c-.01.01-.04.02-.06.04l.06-.07Z"></path><path class="cls-5" d="M76.26,164.23c-.82,1.53-1.68,3.07-3.22,3.97-1.48-.16-1.37-1.17-1.28-2.16.42-.27.67-.67.77-1.16.51-.3.73-.83,1.05-1.29.41-.59.8-1.18,1.51-1.43,1.33.53,1.7,1.06,1.16,2.07Z"></path><path class="cls-5" d="M56.04,133.24c-.61,1.18-1.54,2.1-2.77,2.62-.95.41-1.31-.44-1.78-1.17-1.12,1.03-1.72,2.52-3.25,3.21-1.23-.73-1.46-1.16-.92-2.11.83-1.47,1.83-2.83,3.01-4.05.49-.51,1.1-.65,1.53-.49.81.32.76.93.99,1.39.26-.09.45-.11.6-.2.38-.24.71-.57,1.12-.75.43-.17.9-.11,1.25.27.35.37.43.86.22,1.27Z"></path><path class="cls-5" d="M71.08,100.46c-.16.2-.36.42-.59.49-2.89,1.07-5.8,2.05-8.7,2.27-.62-.42-.82-.81-.86-1.25.3-.97,1.14-1.24,1.93-1.48,2.16-.66,4.33-1.25,6.49-1.88.38-.11.77-.15,1.15-.02.83.27,1.12,1.18.58,1.86Z"></path><path class="cls-5" d="M73.19,93.71c-.27,1.21-.82,1.86-2.04,2.14-.9.2-1.68.92-2.5,1.43-.77.47-1.51,1-2.45,1.02-.44-.21-.77-.49-.92-.97.06-.53.31-.96.71-1.32,1.4-1.27,3-2.24,4.61-3.2,1.03-.62,1.66-.34,2.59.91Z"></path><path class="cls-1" d="M107.57,17c-2.62-5.52-7.44-6.01-11.51-3.69-2.01,1.15-3.17,3.03-3.95,5.16-.58,1.59-.96,3.23-1.38,5.17-1.68-1.02-3.18-1.9-4.93-2.26-4.3-.89-7.79,1.54-8.43,5.88-.37,2.53.09,4.92,1.12,7.22,1.18,2.64,2.97,4.84,5.11,6.79,3.65,3.32,7.9,5.93,11.34,9.51.09.09.22.14.33.21,1.96,1.25,3.73.54,4.44-1.62,1.38-4.2,2.77-8.39,4.53-12.45,1.3-2.98,2.64-5.95,3.59-9.06,1.1-3.63,1.42-7.29-.27-10.84ZM105.64,25c-.39,2.39-1.28,4.64-2.26,6.82-2.36,5.22-4.38,10.55-6.08,16.01-.07.24-.21.45-.45.93-3.48-3.53-7.39-6.09-10.91-9.14-3.02-2.62-5.34-5.68-5.81-9.82-.04-.32-.1-.64-.09-.97.17-3.9,2.39-5.67,6.05-4.44,1.98.65,3.75,1.71,4.76,3.73.78,1.54,1.88,1.49,3.1-.04-1.2-3.59.01-6.88,1.43-10.09.82-1.85,2.47-2.84,4.44-3.13,1.71-.24,3.19.33,4.28,1.77,1.92,2.54,2.03,5.4,1.55,8.36Z"></path><path class="cls-3" d="M105.64,25c-.39,2.39-1.28,4.64-2.26,6.82-2.36,5.22-4.38,10.55-6.08,16.01-.07.24-.21.45-.45.93-3.48-3.53-7.39-6.09-10.91-9.14-3.02-2.62-5.34-5.68-5.81-9.82-.04-.32-.1-.64-.09-.97.17-3.9,2.39-5.67,6.05-4.44,1.98.65,3.75,1.71,4.76,3.73.78,1.54,1.88,1.49,3.1-.04-1.2-3.59.01-6.88,1.43-10.09.82-1.85,2.47-2.84,4.44-3.13,1.71-.24,3.19.33,4.28,1.77,1.92,2.54,2.03,5.4,1.55,8.36Z"></path><path class="cls-1" d="M131.15.26c-2.11.59-3.85,1.83-5.5,3.21-1.14.95-2.23,1.95-3.38,2.97-.82-.29-1.04-.87-1.4-1.32-.77-.97-1.61-1.85-2.67-2.52-1.78-1.12-3.66-1.91-5.62-.64-1.94,1.25-2.1,3.27-1.83,5.37.34,2.62,1.41,4.97,2.64,7.28,2.11,3.96,5.16,7.31,7.17,11.33.59,1.18,1.56,1.23,2.57.33,1.15-1.03,2.23-2.16,3.38-3.18,3.15-2.82,5.98-5.94,8.35-9.43,1.78-2.59,3.09-5.4,2.91-8.68-.21-3.7-3.05-5.72-6.62-4.71ZM134.87,6.79c-.45,2.14-1.41,4.04-2.64,5.81-2.77,3.96-6.24,7.24-9.95,10.73-1.87-3.64-4.49-6.41-6.26-9.74-.92-1.73-1.8-3.47-2.26-5.37-.3-1.26-.55-2.55.15-3.76.74-.42,1.42-.27,2.07.09,1.66.9,2.88,2.2,3.66,3.91.24.54.41,1.09.22,1.7-.08.24-.15.5-.16.76-.03.67.05,1.33.83,1.57.81.26,1.35-.03,1.73-.8,1.6-3.33,4.31-5.63,7.31-7.63.87-.58,1.79-1.07,2.86-1.18,1.53-.15,2.34.47,2.55,2,.09.64.02,1.28-.11,1.93Z"></path><path class="cls-3" d="M134.87,6.79c-.45,2.14-1.41,4.04-2.64,5.81-2.77,3.96-6.24,7.24-9.95,10.73-1.87-3.64-4.49-6.41-6.26-9.74-.92-1.73-1.8-3.47-2.26-5.37-.3-1.26-.55-2.55.15-3.76.74-.42,1.42-.27,2.07.09,1.66.9,2.88,2.2,3.66,3.91.24.54.41,1.09.22,1.7-.08.24-.15.5-.16.76-.03.67.05,1.33.83,1.57.81.26,1.35-.03,1.73-.8,1.6-3.33,4.31-5.63,7.31-7.63.87-.58,1.79-1.07,2.86-1.18,1.53-.15,2.34.47,2.55,2,.09.64.02,1.28-.11,1.93Z"></path></g></svg> 