<?xml version="1.0" encoding="UTF-8"?> <svg xmlns="http://www.w3.org/2000/svg" id="Layer_2" viewBox="0 0 237.79 425.49"><defs><style>.cls-1{fill:#121414;}.cls-1,.cls-2,.cls-3,.cls-4,.cls-5,.cls-6,.cls-7,.cls-8{stroke-width:0px;}.cls-2{fill:#d7f2f2;}.cls-3{fill:#37b2b6;}.cls-4{fill:#f7aa34;}.cls-5{fill:#b1eaeb;}.cls-6{fill:#f9d575;}.cls-7{fill:#fff;}.cls-8{fill:#f67e00;}</style></defs><g id="Layer_2-2"><path class="cls-1" d="M.75,161.75c1.65,2.86,3.98,5.13,6.58,7.07,2.5,1.86,5.25,3.34,8.09,4.65,1.41.66,2.95.75,4.39.97,5.29.8,10.19-.37,14.38-3.85,1.97-1.64,3.37-3.68,3.56-6.36,2.67-.29,5.46.67,7.66-2.19,1.06,5.75,1.49,11.17,2.84,16.6-3.78.58-5.63,3.32-7.43,6.14-1.99,3.09-1.71,6.29-.34,9.51-1.88,2.04-2.34,4.69-3.27,7.07-2.06,5.29-4.31,10.5-6.6,15.69-1.9,4.31-3.96,8.57-5.19,13.14-.97,3.55-.59,6.99,1.15,10.18,1.94,3.54,4.22,6.88,6.95,9.89.78.86,1.56,1.76,2.18,2.74,2.28,3.61,5.26,6.62,8.15,9.72,1.66,1.77,3.18,3.66,4.7,5.43-.19,1.23-1.44,1.14-1.98,1.94-.34.72-.15,1.52-.07,2.33.68,6.62.53,13.22-.68,19.76-.79,4.27-2.06,8.42-3.75,12.44-.24.57-.46,1.17-.59,1.78-.34,1.48-.07,1.93,1.3,2.8,2.13,1.35,4.57,2.13,6.93,2.51,3.35.54,6.62,1.42,9.97,1.95,1.83.29,3.76.35,5.6,1.27v17.77c-.93.56-1.81.85-2.79,1.06-2.16.46-3.48,2.18-4.81,3.78-.45.54-.61,1.18-1.57,1.21-.91.04-1.27,1.11-1.41,1.8-.71,3.59-2.3,6.96-2.67,10.62-.46,4.51-1.24,8.96-1.32,13.52-.13,6.82.38,13.6.65,20.4.14,3.49,1.07,6.94,1.45,10.43.23,2.15.31,4.32.6,6.48.45,3.39.74,6.8,1.07,10.21.14,1.42.65,2.76.72,4.22.09,1.68,2.05,3.2,3.92,3.38,1.7.17,3.41.14,5.11.52,1.87.42,3.63-.77,5.69-.6.38-1.38.75-2.72,1.17-4.24,1.59,1.22,2.91,2.64,4.43,3.83,3.01,2.35,6.41,3.73,9.99,4.92,2.88.96,5.76,1.14,8.73,1.24,3.76.14,6.89-1.39,9.93-3.23,1.83-1.12,3.94-1.86,5.33-3.65,2.49-3.19,5.27-6.13,6.56-10.18.67-2.08,1.31-4.08,1.16-6.32-.02-.22-.04-.45-.07-.68-.07-.47-.17-.94-.31-1.43-.19-.3-.77-.45-1.42-.17-.58.24-1.14.53-1.67.87-1.89,1.24-3.91,1.39-5.96.62-2.38-.89-4.86-1.6-6.59-3.73-.77-.95-2.09-1.59-2.78-2.44-1.24-1.55-3.58-3.05-1.92-5.74.47-.77-.58-1.42-.48-2.3.18-1.61.24-3.21-.01-4.87-.25-1.58.22-3.22.46-4.84.37-2.59.19-5.23.47-7.86.21-1.96,1.2-3.67,1.16-5.71-.04-1.84-.09-3.83,1.14-5.48.03-3.92-.14-7.66-2.88-11-2.67-3.27-5.87-5.13-9.96-5.71-.62-.09-1.23-.28-1.85-.42-5.66-.05-11.21.4-16.15,3.58l-.02.02c-.18.17-.37.35-.56.51l-.03.03s-.01.01-.02.02c-2.27,1.95-4.74,3.69-6.61,6.43-1.2-2.88-2.4-5.47-2.23-8.44.23-4.29,2.32-6.63,6.32-7.02.58,2.65-.22,5.39.39,7.94.62.47,1.17.71,1.81.71h.04c.12-.32.37-.41.68-.41.06-1.08.18-2.16.18-3.24-.03-7.78-.1-15.55-.12-23.33,0-.96-.29-1.99.44-3.01,4.5.33,9.09.14,13.73.8-.27,8.27.49,16.37-.1,24.04.76,1.19,1.57.92,2.25,1.04.67-.83.95-1.66.99-2.84.18-5.72.09-11.43-.33-17.14-.14-1.83.4-3.57.44-5.52,6.26.13,12.33.02,18.04-2.12.24-.72.47-1.35.31-1.91-.1-.37-.37-.71-.93-1.02-9.55,2.98-19.54,2.29-29.45,1.94-9.77-.34-19.31-2.36-28.77-5.25.71-2.33,1.29-4.54,2.08-6.67.84-2.28,1.51-4.65,2.01-6.96.51-2.3.61-4.83.69-7.27.08-2.54-.24-5.13.15-7.62.37-2.41-.38-4.72-.04-7.27,2.09-.68,4.32-1.29,6.31-2.53.93-.57,1.82-1.17,2.52-2,2.8-3.3,5.71-6.52,7.05-10.81.37-1.16.52-2.23.43-3.33-1.99-.8-2.26-.77-2.73.76-.21.7-.6,1.29-.82,1.97-.26.8-.58,1.56-.95,2.28-.1.19-.2.39-.31.58-1.61,2.84-4,5.12-6.4,7.38-.86.8-1.86,1.44-3.2,1.03-1.96-2.25-3.79-4.72-6-6.81-3.61-3.41-6.47-7.4-9.5-11.28-2.02-2.59-3.97-5.22-5.86-7.91-1.52-2.17-2.42-4.62-2.31-7.14.09-2.21.77-4.52,1.72-6.55,1.86-3.98,3.44-8.09,5.43-12.03,1.79-3.58,2.99-7.46,4.46-11.2.75-1.89,1.52-3.77,2.4-5.97,2.98,2.75,4.94,5.9,7.21,9.08-3.18,5.24-4.98,11.25-7.92,16.72-1.53,2.84-1.47,6.01-2.31,8.99-.24.85.35,1.9.85,2.77,3.6,6.25,7.65,12.15,12.81,17.25,1.15,1.13,2.12,2.44,2.85,3.9.33.65.69,1.26,1.22,1.77,1.28,1.24,1.86,1.17,3.17-.4-1.51-3.22-3.4-6.1-6.13-8.51-2.04-1.81-3.37-4.35-5.25-6.39-.51-.55-.6-1.44-.49-2.3.72-5.6.5-11.23.51-16.85,0-1.96.73-3.86.45-5.81-.2-.74-1.04-.58-1.39-1.08.96-1.96,1.92-3.92,3.06-6.23,1.76,3.05,1.69,6.31,3.07,8.98,2.13.02,3.01-.88,2.42-2.71-1.03-3.25-1.58-6.68-3.23-9.7-1.86-3.4-3.96-6.67-6.59-9.54-1.78-1.93-2.99-4.15-3.68-6.63-.37-1.32-.06-2.66.62-3.88,1.26-2.29,2.53-4.57,5.31-5.56,6.71,11.91,15.41,22.4,21.24,34.52.98-.07,1.49-.1,2.03-.14.31.73.19,1.67,1.37,2.29,2.97.32,6.29.7,9.61,1.02,3.61.35,7.21.65,10.82.96.45.04.91.1,1.36.1,5.53-.04,11.03.62,16.54.99,1.83.13,3.6-.33,5.42-.26,4.7.19,9.4.41,14.1.78,3.04.24,6.15-.29,9.22-.58,2.9-.27,5.75-.2,8.67.08,3.59.36,7.24.09,10.89.09.36-.52.71-1.02,1.04-1.49l-.03-.15s-.01-.07-.02-.11c-.02-.11-.05-.2-.11-.27-.77-.88-1.76-1.22-2.92-1.13-.18.02-.36-.01-.54.01-5.52.74-11.01-.46-16.52-.2-.55,0-1.1,0-1.64.01-1.65.08-3.22.85-4.91.53-.36.01-.72.01-1.09.01-2.06.18-4.1.05-6.16-.21-3.93-.51-7.9-.19-11.85-.28-.54-.01-1.08-.04-1.61-.06h-1.1c-4.08.24-8.13-.33-12.18-.67-1.36-.12-2.72-.05-4.06-.15-4.52-.33-9.04-.68-13.55-1.13-2.07-.21-4.19-.01-6.19-.75-.36-.01-.73-.02-1.09-.03-.98.05-1.97.1-3.04.16-.42-2.59-1.88-4.79-3.17-7.01-2.84-4.93-5.97-9.68-9.21-14.35-2.83-4.07-5.38-8.34-8.04-12.53-.28-.45-.53-.89-.58-1.48-.56-6.1-2.26-12.01-2.86-18.08-.7-1.05-1.88-.03-2.64-.74.35-1.18.85-2.3,1.45-3.29,1.23-.28,1.49.64,1.94,1.27,4.06,5.77,9.28,10.18,15.76,12.95,14,6.01,28.84,2.4,38.58-8.03,7.9-8.46,11.12-18.64,10.27-30.14-.02-.36,0-.72,0-1.1,1.97-.68,3.73-1.79,5.95-1.62,2.33.19,2.93,2.55,4.83,3.43.09,1.29.18,2.63.28,3.97,1.15,15.32,8.27,26.83,22.17,33.6,13.5,6.57,29.31,3.31,39.5-7.71,1.29-1.39,2.46-2.89,3.69-4.33.12-.63.51-1.07,1.05-1.44v1.51c.46,1.26.91,2.52,1.37,3.78.12.06.23.13.33.21.29.24.48.55.62.93,1.73,1.32,3.69,1.83,5.93,1.47.91,5.71,4.82,8.78,9.39,11.28.67-.12,1.14.14,1.47.72.98.04,1.97-.01,2.89.44.41-.13.81-.21,1.09.25,5.37-.24,10.62-1.06,15.22-4.02,2.96-1.91,5.82-4.05,7.8-7.06.63-.96.55-2.07.25-3.18-.67-.45-1.4-.75-2.44-.37-.86.78-.92,2.74-2.83,2.62-.37.47-.74.54-1.08-.02-.94.04-1.15-.65-1.41-1.35-.61-1.61-1.41-3.17-1.87-4.82-.67-2.38-1.73-4.53-2.85-6.72-1.22-2.38-3.11-4.06-4.94-5.83-.33-.33-.98-.35-1.48-.51-.44.05-.84-.02-1.05-.48-.98-.11-1.95-.21-2.92-.33-3.85-.47-7.28.37-10.06,3.22-.28.51-.44,1.29-1.23.49-3.45-1.33-3.89-1.36-7.25-.6-.3.92-1.07,1.4-1.77,2.04-.35-.91.29-1.43.47-2.07,1.72-5.18,2.34-10.48,1.64-15.89-.28-2.2-.1-4.41-.7-6.62-.49-1.83-1.15-3.58-1.78-5.55,1.29-.15,1.64-1,1.73-2.21.16-2.03.56-4.05.72-6.09.08-1.08-.05-2.19-.24-3.27-.37-2.07-.24-4.17-.53-6.23-.27-1.9-.45-3.82-1.11-5.66-1.07-2.97-2.1-5.95-3.17-9.02.59-1.65,2.46-1.33,3.59-1.47,1.54-.19,2.96-.69,4.29-1.21,2.89-1.12,5.86-2.22,8.05-4.64.95-1.06,1.52-2.2,1.54-3.61.01-1-.04-2.01.06-3,.26-2.53-.98-4.34-2.54-6.19-3.03-3.62-7.08-5.74-11.01-8.1-5.43-3.28-11.58-4.74-17.41-7.02-.46-.18-1.05-.02-1.52-.02-.29-1.72-.62-3.31-.81-4.92-.34-2.89-.67-5.77-1.12-8.65-.37-2.38-1.1-4.63-1.84-6.87-1.28-3.84-3.06-7.5-4.96-11.08-1.11-2.09-2.31-4.19-4.16-5.76-.66-.55-.79-1.37-1.28-2.02-1.63-2.16-3.84-3.67-5.77-5.49-.41.06-.85.16-.72-.51-.48-1.76-1.69-2.8-3.23-3.67-3.71-2.08-7.65-2.84-11.87-2.4-.72.08-1.17.38-1.55.99.06.88.77,1.31,1.52,1.91,3-.41,5.96.18,8.77,1.52,1.05.49,2.2.85,3.01,1.73.21.24.2.66.32,1.11-1.47,1.38-3.34,1.27-5.06,1.38-2.63.17-5.27.19-7.9.12-7.6-.19-15.2-.38-22.76-1.46-3.21-.47-6.47-.7-9.71-1.05-4.2-.45-8.14-1.62-12.01-3.22-.85-.35-1.77-.56-2.61-1.08.76-1.16,1.9-1.66,3.2-1.8,5.6-.62,11.27-1.05,16.85-.47,6.01.64,12.08.77,18.06,1.94,2.15.43,4.46.88,6.73.47.18-.44.67-.7.67-1.18,0-.1-.02-.2-.06-.32-.24-.61-.57-1-1.22-1.24-.53-.18-1.05-.34-1.58-.33-4.01.11-7.89-.93-11.83-1.4C115.22-.09,106.89-.13,98.55.14c-3.28.11-6.49.71-8.67,3.63-.21.28-.51.56-.82.67-3.46,1.2-5.48,3.9-7.12,6.77-3.6,1.35-7.26.96-10.83,1.26-4.57.38-8.33,2.36-11.23,5.69-1.76,2.01-3.81,3.79-5.01,6.35-1.57,3.3-1.88,6.48-1.11,10.08.79,3.7,1.99,6.98,4.47,9.88,2.34,2.73,5.2,4.48,8.75,4.65.09.81-.6,1.47-.4,2.27-.37.13-.62.3-.86.28-4.81-.52-9.61-.19-14.39.24-5.07.46-10.15.99-14.65,3.79-2.07,1.3-3.49,2.96-3.2,5.48.14,1.29.69,2.58,1.28,3.76,1.09,2.2,2.6,4.07,4.68,5.48,3.49,2.35,6.96,4.67,10.85,6.37.56.24,1.13.48,1.7.72.07.03.13.06.2.09,2.86,1.2,5.74,2.34,8.61,3.48,2.69,1.06,5.7,1.39,8.6,1.82,7.03,1.05,14.12,1.64,21.09,3.2,5.09,1.15,10.36,1.43,15.49,2.41,4.61.88,9.35.8,13.9,1.99.25.06.54-.08.8-.07,3.35.19,6.72.12,10.1.94-1.31.89-2.77,1.41-4.22,2.03-6.22,2.67-12.82,3.84-19.37,5.21-2.12.44-4.32.66-6.48.64-2.47-.01-4.87.57-7.31.55-.95-.01-1.48.57-2.07,1.22-3.1-1.26-6.36-1.92-9.65-2.57-3.45-.69-6.77.12-10.14.29-3.42.17-6.58,1.57-9.61,3.05-3.05,1.48-5.85,3.44-8.33,5.81-2.5,2.39-4.57,5.09-6.4,7.99-.54-.4-.78-.89-.91-1.56-.52-2.7-.53-5.42-.49-8.15.08-5.39.89-10.69,2.2-15.9.33-1.32,1.23-2.49,1.79-3.76.71-1.61,1.74-3.16,1.27-5.12-.1-.06-.2-.11-.29-.15-.07-.03-.14-.06-.21-.08-1.08-.36-1.82.27-2.36,1.26-2.63,4.82-4.34,9.91-4.68,15.46-.18,3.05-1,6.07-.85,9.14.14,2.88.19,5.77.88,8.61.19.77.1,1.62.14,2.43.17.89,1.09,1.18,1.47,1.84-3.88,9.16-4.26,18.47-1.66,28.09-1.33.22-2.63-.5-4.03-.5s-2.76,1-4.36.49c-1.39-2.59-3.68-3.88-6.67-4.41-4.3-.78-8.19-.26-11.69,2.49-2.27,1.79-3.37,4.37-4.72,6.79-1.52,2.72-2.61,5.66-4.25,8.02-.91.6-1.67.16-2.34.36-1.32-.65-1.68-2.01-2.4-3.08q-1.52-.1-2.86.8c-.44,1.16.02,2.14.57,3.09ZM203.13,164.72c3.42-2.81,3.35-6.68,2.77-10.54,1.43-2.02,2.73-3.37,4.11-3.54,5.51-.7,9.6-.12,12.23,5.12,1.3,2.6,2.23,5.35,3.16,8.08.95,2.78,1.98,5.44,5.21,6.97-4.41,2.79-8.52,5.07-13.48,5.42-4.74.34-8.7-1.13-11.98-4.57-1.85-1.96-3.04-4.06-2.02-6.94ZM194.29,158.52c.27-3.35,2.33-5.09,5.89-5.35,2.27.85,3.17,1.92,3.01,4.16-.23,3.13-.37,5.34-5.9,6.63-2.43-1.15-3.18-3.15-3-5.44ZM45.24,238.48c-1.1-1.85-1.95-3.32-2.85-4.76-.36-.58-.47-1.19-.36-1.81.59-3.24,1.01-6.55,3.21-9.41v15.98ZM58.32,352.67c.91,1.73-.02,4.05,1.74,5.46,1.31-.16,1.98-.9,2.39-2,.96-2.61,2.59-4.77,4.8-6.44,2.3-1.74,4.44-3.86,7.34-4.49,3.53-.77,7.06-1.23,10.76-.7,5.43.77,8.43,4.1,10.54,8.67.29.62.44,1.34.32,2.12-.37,2.23-.51,4.5-.95,6.71-.83,4.17-1.66,8.33-1.54,12.62.03.81-.22,1.62-.29,2.43-.22,2.42-1.02,4.83-.47,7.28.38,1.74.24,3.45-.13,5.1-.35,1.56-.04,2.91.65,4.18,2.05,3.74,5.03,6.65,8.68,8.76,3.66,2.12,7.64,3.04,11.86,1.7.1.88-.34,1.39-.56,1.98-2.19,5.95-5.44,11-11.49,13.73-.74.33-1.41.81-2.1,1.24-1.57,1-3.28,1.41-5.12,1.52-4.85.27-9.29-1.22-13.58-3.2-3.77-1.74-6.94-4.24-8.73-8.17-.29-.64-.53-1.37-1.59-1.7-.78-.02-1.68.3-2.54,1.04-.4,1.09.02,2.28-.12,3.44-.28,2.31-1.26,3.43-3.5,3.23-2.12-.19-4.38.34-6.44-.94-.31-1.71-.82-3.47-.92-5.26-.3-5.7-1.2-11.33-1.85-16.99-.67-5.85-1.39-11.69-1.51-17.59-.16-8.33-.5-16.68,1.12-24.93.27-1.33.51-2.67.76-4,1.1,1.74,1.61,3.56,2.47,5.2ZM79.37,14.83c-1.54,2.36-2.88,4.39-4.27,6.51-1.7.39-3.46.76-5.2,1.2-3.37.85-5.88,3.01-7.45,5.93-1.47,2.73-1.9,5.78-.4,8.85,1.25,2.55,3.1,4.41,5.65,5.5-.04.84.02,1.57-.29,2.21-.99.98-2,1.04-3.23.45-3.7-1.78-5.7-4.9-6.89-8.63-1.32-4.15-1.93-8.27.93-12.15,1.84-2.49,3.79-4.92,6.27-6.75,1.88-1.39,4.03-2.43,6.47-2.57,2.69-.14,5.4.19,8.41-.55ZM66.17,28.38c2.05-2.32,4.66-3.25,8.17-3.79-2.78,5.01-3.97,10.18-5.51,15.24-5.01-2.3-6.09-7.55-2.66-11.45ZM173.93,61.57c-.55.64-.93,1.33-1.51,1.7-4.22,2.66-8.6,5.13-13.57,5.96-5.52.92-11.07,1.5-16.71,1.59-7.08.12-14.16-.05-21.23.22-2.08.08-4.2.1-6.26-.18-6.52-.88-13.02-1.9-19.4-3.61-5.14-1.38-10.27-2.85-15.49-3.84-3.84-.73-7.07-2.51-10.47-4.32-.28-11.88,3.25-22.79,7.62-33.53.33-.81.82-1.37,1.71-2.01-.34-1.44.27-2.47.96-3.59,1.56-2.55,3.8-4.63,5.06-7.38,1.09-2.38,2.91-4.08,4.94-5.38,4.7,2.37,9.41,4.08,14.45,4.92,4.92.81,9.9,1.06,14.83,1.72,7.39.99,14.8,1.14,22.23,1.19,2.17.02,4.34-.19,6.51-.18,2.57.02,5.07-.13,7.14-2.06,1.37,1.16,2.72,2.11,3.83,3.29,5.49,5.85,9.1,12.82,11.51,20.39,2.6,8.16,2.84,16.7,3.85,25.1ZM187.15,87.09c-6.55,1.52-13.18,2.43-19.85,2.84-5.85.36-11.72.13-17.59-.31-7.86-.58-15.73-1.07-23.58-1.8-2.34-.22-4.7-.37-7.04-.65-5.47-.67-10.96-1.31-16.41-2.13-3.03-.46-6.07-.82-9.08-1.47-5.83-1.26-11.73-2.15-17.66-2.87-4.56-.55-9.14-1.08-13.6-2.37-3.31-.96-6.34-2.56-9.57-3.7-4.11-1.46-7.82-3.79-11.31-6.38-2.8-2.08-5.14-4.6-4.89-8.52,1.7-1.87,3.78-2.86,6.09-3.5,3.43-.94,6.97-1.16,10.48-1.48,4.23-.38,8.49-.19,12.84-.11.07,1.29.14,2.44.19,3.59.05,1.16-.23,2.37.49,3.38,1.3.5,2.66.81,3.77,1.51,2.74,1.7,5.71,2.6,8.84,3.25,7.58,1.59,14.99,3.9,22.57,5.49,6.22,1.3,12.5,2.26,18.83,2.28,10.6.03,21.2-.06,31.79-.94,7.19-.59,13.79-2.63,19.93-6.36,1.75-1.05,3.18-2.36,4.41-4.11v-5.04c5.38,2.03,10.92,3.03,15.67,6.18,1.73,1.14,3.61,2.05,5.44,3.03,3.02,1.61,5.36,4.02,7.36,6.71,1.6,2.15,1.16,5.3-.81,7.15-2.28,2.15-5.14,3.43-8.11,4.11-3.08.7-6.13,1.51-9.2,2.22ZM192.28,119.13c-6.89-12.19-16.94-19.31-30.82-20.5-1.58-1.95-3.66-3.33-5.14-5.84,5.69.84,10.99.27,16.28-.31,5.26-.58,10.53-1.22,15.8-2.69.18,1.71.58,2.99,1.13,4.23,2.79,6.31,3.7,12.99,3.75,19.81.01,1.73.03,3.53-1,5.3ZM127.56,136.28c.03-2.04.23-4.01.57-5.98,1.4-8.13,4.97-15.07,11.12-20.62,1.96-1.77,4.17-3.16,6.45-4.49,3.41-1.99,7.32-2.45,10.95-3.77.92-.34,2.11.1,3.17.15,6.64.34,12.88,1.98,18.32,5.95,10.49,7.65,15.55,18.07,15.55,30.99-.01,7.86-2.36,14.96-7.06,21.25-9.35,12.52-26.09,16.82-40.22,8.93-12.62-7.05-18.18-18.36-18.85-32.41ZM113.24,130.03c-2.42-11.92-8.63-20.88-18.89-27.34,5.63-.31,10.92-.66,16.17-1.69,8.28-1.63,16.27-4.04,23.83-7.8,2.07-1.03,4.1-1.54,6.48-1.23,3.85.51,7.75.64,11.48.92.93,1.16,1.8,2.1,2.51,3.14.73,1.07,2.15,1.67,2.32,3.4-1.52-.13-2.95-.38-4.33-.02-2.45.64-4.87,1.35-7.16,2.46-10.26,4.98-16.57,13.17-19.67,24-.46,1.61-.38,3.37-1.28,4.97-3.53-3.65-7.34-3.08-11.46-.81ZM47.34,156.71c.21.31.36.61-.04.9-.2-.31-.55-.61.04-.9ZM45.47,128.71c1.54-9,6.21-16.31,13.64-21.79,4.33-3.18,9.35-4.59,14.4-5.94.97-.26,2.09.01,3.15.05,6.74.27,13.05,1.93,18.59,5.93,10.38,7.48,15.26,17.8,15.61,30.42.08,5.93-1.32,11.48-3.93,16.76-4.76,9.64-16,19.24-31.3,17.74-6.02-.59-11.49-2.6-16.19-6.33-11.93-9.48-16.52-21.94-13.97-36.84ZM35.4,154.34c.25-2.65.93-3.43,3.42-3.97,3.9.57,5.4,2.92,5.24,6.26-.11,2.17-1.09,4.02-3.6,4.7-4.38-1.35-5.37-3.62-5.06-6.99ZM6.51,164.37c2.81-.71,4.22-2.52,5.3-4.71,1.31-2.68,2.64-5.35,4.04-7.98,2.1-3.95,5.21-5.94,9.92-5.64,3.47.22,5.85,1.51,7.27,4.65-.09.39-.17.74-.26,1.09-.87,3.3-.76,6.37,1.41,9.28,1.08,1.46.88,3.3-.23,4.82-3.08,4.18-8.73,6.57-14.14,5.59-5.12-.93-9.12-3.74-13.31-7.1Z"></path><path class="cls-8" d="M61.16,351.8c1.87-2.74,4.34-4.48,6.61-6.43l-.32-.38c-.64,0-1.19-.24-1.81-.71-.61-2.55.19-5.29-.39-7.94-4,.39-6.09,2.73-6.32,7.02-.17,2.97,1.03,5.56,2.23,8.44Z"></path><path class="cls-5" d="M67.45,344.99l.32.38s.01,0,.02-.02l.03-.03c.19-.16.38-.34.56-.51l.02-.02c4.94-3.18,10.49-3.63,16.15-3.58v-.33c-.68-.12-1.49.15-2.25-1.04.59-7.67-.17-15.77.1-24.04-4.64-.66-9.23-.47-13.73-.8-.73,1.02-.44,2.05-.44,3.01.02,7.78.09,15.55.12,23.33,0,1.08-.12,2.16-.18,3.24-.31,0-.56.09-.68.41h-.04Z"></path><path class="cls-3" d="M92.73,5.23c.84.52,1.76.73,2.61,1.08,3.87,1.6,7.81,2.77,12.01,3.22,3.24.35,6.5.58,9.71,1.05,7.56,1.08,15.16,1.27,22.76,1.46,2.63.07,5.27.05,7.9-.12,1.72-.11,3.59,0,5.06-1.38-.12-.45-.11-.87-.32-1.11-.81-.88-1.96-1.24-3.01-1.73-2.81-1.34-5.77-1.93-8.77-1.52-.75-.6-1.46-1.03-1.52-1.91l-.92-.08c0,.48-.49.74-.67,1.18-2.27.41-4.58-.04-6.73-.47-5.98-1.17-12.05-1.3-18.06-1.94-5.58-.58-11.25-.15-16.85.47-1.3.14-2.44.64-3.2,1.8Z"></path><path class="cls-6" d="M46.29,114.03c.13.67.37,1.16.91,1.56,1.83-2.9,3.9-5.6,6.4-7.99,2.48-2.37,5.28-4.33,8.33-5.81,3.03-1.48,6.19-2.88,9.61-3.05,3.37-.17,6.69-.98,10.14-.29,3.29.65,6.55,1.31,9.65,2.57.59-.65,1.12-1.23,2.07-1.22,2.44.02,4.84-.56,7.31-.55,2.16.02,4.36-.2,6.48-.64,6.55-1.37,13.15-2.54,19.37-5.21,1.45-.62,2.91-1.14,4.22-2.03-3.38-.82-6.75-.75-10.1-.94-.26,0-.55.13-.8.07-4.55-1.19-9.29-1.11-13.9-1.99-5.13-.98-10.4-1.26-15.49-2.41-6.97-1.56-14.06-2.15-21.09-3.2-2.9-.43-5.91-.76-8.6-1.82-2.87-1.14-5.75-2.28-8.61-3.48-.07-.03-.13-.06-.2-.09l-1.43,3.36c.07.02.14.05.21.08.09.04.19.09.29.15.47,1.96-.56,3.51-1.27,5.12-.56,1.27-1.46,2.44-1.79,3.76-1.31,5.21-2.12,10.51-2.2,15.9-.04,2.73-.03,5.45.49,8.15Z"></path><path class="cls-6" d="M156.32,92.79c1.48,2.51,3.56,3.89,5.14,5.84,13.88,1.19,23.93,8.31,30.82,20.5,1.03-1.77,1.01-3.57,1-5.3-.05-6.82-.96-13.5-3.75-19.81-.55-1.24-.95-2.52-1.13-4.23-5.27,1.47-10.54,2.11-15.8,2.69-5.29.58-10.59,1.15-16.28.31Z"></path><path class="cls-8" d="M53.97,376.4c.12,5.9.84,11.74,1.51,17.59.65,5.66,1.55,11.29,1.85,16.99.1,1.79.61,3.55.92,5.26,2.06,1.28,4.32.75,6.44.94,2.24.2,3.22-.92,3.5-3.23.14-1.16-.28-2.35.12-3.44.86-.74,1.76-1.06,2.54-1.04,1.06.33,1.3,1.06,1.59,1.7,1.79,3.93,4.96,6.43,8.73,8.17,4.29,1.98,8.73,3.47,13.58,3.2,1.84-.11,3.55-.52,5.12-1.52.69-.43,1.36-.91,2.1-1.24,6.05-2.73,9.3-7.78,11.49-13.73.22-.59.66-1.1.56-1.98-4.22,1.34-8.2.42-11.86-1.7-3.65-2.11-6.63-5.02-8.68-8.76-.69-1.27-1-2.62-.65-4.18.37-1.65.51-3.36.13-5.1-.55-2.45.25-4.86.47-7.28.07-.81.32-1.62.29-2.43-.12-4.29.71-8.45,1.54-12.62.44-2.21.58-4.48.95-6.71.12-.78-.03-1.5-.32-2.12-2.11-4.57-5.11-7.9-10.54-8.67-3.7-.53-7.23-.07-10.76.7-2.9.63-5.04,2.75-7.34,4.49-2.21,1.67-3.84,3.83-4.8,6.44-.41,1.1-1.08,1.84-2.39,2-1.76-1.41-.83-3.73-1.74-5.46-.86-1.64-1.37-3.46-2.47-5.2-.25,1.33-.49,2.67-.76,4-1.62,8.25-1.28,16.6-1.12,24.93Z"></path><path class="cls-8" d="M197.29,163.96c5.53-1.29,5.67-3.5,5.9-6.63.16-2.24-.74-3.31-3.01-4.16-3.56.26-5.62,2-5.89,5.35-.18,2.29.57,4.29,3,5.44Z"></path><path class="cls-6" d="M205.15,171.66c3.28,3.44,7.24,4.91,11.98,4.57,4.96-.35,9.07-2.63,13.48-5.42-3.23-1.53-4.26-4.19-5.21-6.97-.93-2.73-1.86-5.48-3.16-8.08-2.63-5.24-6.72-5.82-12.23-5.12-1.38.17-2.68,1.52-4.11,3.54.58,3.86.65,7.73-2.77,10.54-1.02,2.88.17,4.98,2.02,6.94Z"></path><path class="cls-8" d="M40.46,161.33c2.51-.68,3.49-2.53,3.6-4.7.16-3.34-1.34-5.69-5.24-6.26-2.49.54-3.17,1.32-3.42,3.97-.31,3.37.68,5.64,5.06,6.99Z"></path><path class="cls-6" d="M6.51,164.37c4.19,3.36,8.19,6.17,13.31,7.1,5.41.98,11.06-1.41,14.14-5.59,1.11-1.52,1.31-3.36.23-4.82-2.17-2.91-2.28-5.98-1.41-9.28.09-.35.17-.7.26-1.09-1.42-3.14-3.8-4.43-7.27-4.65-4.71-.3-7.82,1.69-9.92,5.64-1.4,2.63-2.73,5.3-4.04,7.98-1.08,2.19-2.49,4-5.3,4.71Z"></path><path class="cls-5" d="M94.35,102.69c10.26,6.46,16.47,15.42,18.89,27.34,4.12-2.27,7.93-2.84,11.46.81.9-1.6.82-3.36,1.28-4.97,3.1-10.83,9.41-19.02,19.67-24,2.29-1.11,4.71-1.82,7.16-2.46,1.38-.36,2.81-.11,4.33.02-.17-1.73-1.59-2.33-2.32-3.4-.71-1.04-1.58-1.98-2.51-3.14-3.73-.28-7.63-.41-11.48-.92-2.38-.31-4.41.2-6.48,1.23-7.56,3.76-15.55,6.17-23.83,7.8-5.25,1.03-10.54,1.38-16.17,1.69Z"></path><path class="cls-2" d="M127.56,136.28c.67,14.05,6.23,25.36,18.85,32.41,14.13,7.89,30.87,3.59,40.22-8.93,4.7-6.29,7.05-13.39,7.06-21.25,0-12.92-5.06-23.34-15.55-30.99-5.44-3.97-11.68-5.61-18.32-5.95-1.06-.05-2.25-.49-3.17-.15-3.63,1.32-7.54,1.78-10.95,3.77-2.28,1.33-4.49,2.72-6.45,4.49-6.15,5.55-9.72,12.49-11.12,20.62-.34,1.97-.54,3.94-.57,5.98ZM144.96,140.92c1.19-1.35,2.29-1.63,3.57-.91,1.46.82,2.17,2.31,1.71,3.6-.59,1.65-1.96,2.2-4.93,1.91-1.63-2.08-1.69-3.09-.35-4.6Z"></path><path class="cls-2" d="M59.44,165.55c4.7,3.73,10.17,5.74,16.19,6.33,15.3,1.5,26.54-8.1,31.3-17.74,2.61-5.28,4.01-10.83,3.93-16.76-.35-12.62-5.23-22.94-15.61-30.42-5.54-4-11.85-5.66-18.59-5.93-1.06-.04-2.18-.31-3.15-.05-5.05,1.35-10.07,2.76-14.4,5.94-7.43,5.48-12.1,12.79-13.64,21.79-2.55,14.9,2.04,27.36,13.97,36.84ZM85.21,141.62c.83-2.82,1.93-3.87,3.84-3.67,1.38.14,2.52,1.31,2.59,2.63.08,1.47-1.1,3.04-2.54,3.4-1.82.46-2.79-.13-3.89-2.36Z"></path><path class="cls-3" d="M41.46,68.25c3.49,2.59,7.2,4.92,11.31,6.38,3.23,1.14,6.26,2.74,9.57,3.7,4.46,1.29,9.04,1.82,13.6,2.37,5.93.72,11.83,1.61,17.66,2.87,3.01.65,6.05,1.01,9.08,1.47,5.45.82,10.94,1.46,16.41,2.13,2.34.28,4.7.43,7.04.65,7.85.73,15.72,1.22,23.58,1.8,5.87.44,11.74.67,17.59.31,6.67-.41,13.3-1.32,19.85-2.84,3.07-.71,6.12-1.52,9.2-2.22,2.97-.68,5.83-1.96,8.11-4.11,1.97-1.85,2.41-5,.81-7.15-2-2.69-4.34-5.1-7.36-6.71-1.83-.98-3.71-1.89-5.44-3.03-4.75-3.15-10.29-4.15-15.67-6.18v5.04c-1.23,1.75-2.66,3.06-4.41,4.11-6.14,3.73-12.74,5.77-19.93,6.36-10.59.88-21.19.97-31.79.94-6.33-.02-12.61-.98-18.83-2.28-7.58-1.59-14.99-3.9-22.57-5.49-3.13-.65-6.1-1.55-8.84-3.25-1.11-.7-2.47-1.01-3.77-1.51-.72-1.01-.44-2.22-.49-3.38-.05-1.15-.12-2.3-.19-3.59-4.35-.08-8.61-.27-12.84.11-3.51.32-7.05.54-10.48,1.48-2.31.64-4.39,1.63-6.09,3.5-.25,3.92,2.09,6.44,4.89,8.52Z"></path><path class="cls-3" d="M57.29,36.85c1.19,3.73,3.19,6.85,6.89,8.63,1.23.59,2.24.53,3.23-.45.31-.64.25-1.37.29-2.21-2.55-1.09-4.4-2.95-5.65-5.5-1.5-3.07-1.07-6.12.4-8.85,1.57-2.92,4.08-5.08,7.45-5.93,1.74-.44,3.5-.81,5.2-1.2,1.39-2.12,2.73-4.15,4.27-6.51-3.01.74-5.72.41-8.41.55-2.44.14-4.59,1.18-6.47,2.57-2.48,1.83-4.43,4.26-6.27,6.75-2.86,3.88-2.25,8-.93,12.15Z"></path><path class="cls-3" d="M69.29,59.09c3.4,1.81,6.63,3.59,10.47,4.32,5.22.99,10.35,2.46,15.49,3.84,6.38,1.71,12.88,2.73,19.4,3.61,2.06.28,4.18.26,6.26.18,7.07-.27,14.15-.1,21.23-.22,5.64-.09,11.19-.67,16.71-1.59,4.97-.83,9.35-3.3,13.57-5.96.58-.37.96-1.06,1.51-1.7-1.01-8.4-1.25-16.94-3.85-25.1-2.41-7.57-6.02-14.54-11.51-20.39-1.11-1.18-2.46-2.13-3.83-3.29-2.07,1.93-4.57,2.08-7.14,2.06-2.17-.01-4.34.2-6.51.18-7.43-.05-14.84-.2-22.23-1.19-4.93-.66-9.91-.91-14.83-1.72-5.04-.84-9.75-2.55-14.45-4.92-2.03,1.3-3.85,3-4.94,5.38-1.26,2.75-3.5,4.83-5.06,7.38-.69,1.12-1.3,2.15-.96,3.59-.89.64-1.38,1.2-1.71,2.01-4.37,10.74-7.9,21.65-7.62,33.53Z"></path><path class="cls-1" d="M127.52,311.77c3.44.12,6.81.81,10.46,1.24-.82,3.32-.39,6.64-.5,9.94-.12,3.45.07,6.9.22,10.35.1,2.17.19,4.34.17,6.51-.01,1.04.48,1.69,1.31,2.33-.94.9-1.8,1.85-2.77,2.64-.9.74-.98,2.2-2.33,2.61-1.8-2.29-3.83-4.4-4.29-7.43,1.73-4.18,1.94-4.36,5.8-4.77.69-.49.76-1.13.72-1.83-.03-.32-.08-.66-.11-1-1.95-.82-3.67.32-5.3.96-1.69.65-3.01,2.15-3.59,3.89-.36,1.09-.96,1.88-1.7,2.66-.59,4.77-1.11,9.52-1.41,14.32-.43,7.08-.45,14.14-.2,21.21.3,8.43.75,16.85,1.56,25.24.02.21.04.42.06.63.13,1.42.28,2.84.44,4.25.35,3.04,0,6.16.96,9.15.2.62.09,1.38-.16,2.11-.6,1.81-.4,1.87,1.52,2.56,2.41.86,4.85.35,7.28.45,2.18.08,4.12-.73,5.98-1.72,2.3-1.22,2.35-1.47,1.88-4.05.5-.49.83-1.19,1.79-1.36,1.43.56,2.49,1.84,3.77,2.77,3.18,2.3,6.77,3.87,10.46,4.67,3.26.7,6.78.61,10.15-.36,4.4-1.27,8.33-3.35,11.34-6.79,2.14-2.45,3.97-5.17,5.27-8.2.86-1.99,2.15-3.85,1.74-6.28-.48-.93-1.25-1.65-2.28-2.03-1.31.13-2.11.95-2.85,1.87-1.61,2.01-3.8,2.57-6.22,1.62-2.32-.9-3.99-2.61-5.45-4.52-.31-.41-.6-.86-.92-1.29-1.22-1.57-2.41-3.15-1.38-5.35.21-.46.12-1.07.13-1.62.12-4.13.19-8.25.94-12.35.18-.99-.13-2.29-.23-3.42-.13-1.64-.21-3.22.19-4.8.61-2.35.16-4.71.11-7.05-.05-2.56.35-5.06.57-7.59.07-.73.57-1.1.9-1.64-.92-2.45-1.94-5.01-3.37-7.09-2.29-3.36-5.65-5.78-9.98-6.28-.53-.07-1.07-.13-1.82-.22.79-1.68.78-3.37.75-5.05-.09-4.81-.17-9.63-.24-14.44-.02-1.16,0-2.33,0-3.76,3.49.31,6.65-.59,9.9-.47,2.66.1,5.28-.31,7.81-1.13,3.47-1.13,6.92-2.36,10.36-3.6.64-.22,1.2-.66,1.87-1.04.3-1.21.16-2.4-.21-3.65-1.5-5.11-3.07-10.2-4.29-15.37-.72-3.06-1.18-6.27-1.13-9.4.05-2.89-1.23-4.8-3.08-6.6-1.02-.99-2.01-2.02-2.87-3.14-.29-.37-.57-.76-.83-1.15-2.05-3.13-3.81-6.4-3.36-10.56,2.19.39,3.28-.68,4.56-2.35,2.85-3.72,5.62-7.46,8.1-11.43.74-1.17,1.08-2.34,1.24-3.71.43-3.7-.87-7.02-2.11-10.32-.55-1.47-.83-3.03-1.57-4.48-.67-1.33-1.39-2.04-3.02-2.07,2.31-3.61,5.74-6,7.87-9.24,1.01.1,1.25.53,1.48,1.06,2.43,5.46,5.1,10.82,7.25,16.38,1.17,3.03,2.09,6.26,2.27,9.59.12,2.42-.62,4.39-2.16,6.43-3.85,5.1-8.48,9.55-12,14.92-1.31,2-3.34,3.54-4.82,5.49-.33.43-.9.73-.9,1.35,0,.07.01.14.02.22,1.75,1.47,2.2,1.6,3.5.15,2.26-2.5,4.48-5.06,6.46-7.78,1.05-1.44,2.26-2.77,3.4-4.07,3.35-3.83,6.47-7.81,9.42-11.91-.03-2.28.48-4.49.02-6.79-.82-4.09-1.78-8.11-3.49-11.94-1.7-3.81-3.4-7.62-5.32-11.33-.67-1.31-.6-2.93-1.87-4.13,2.02-2.49,2.14-5.32,1.98-8.25-.22-4.09-1.72-6.03-5.74-7.19-.24-.07-.48-.19-.81-.32.24-1.27,1.18-2.23,1.47-3.35,1.03-4.09,2.54-8.03,3.43-12.17.45-2.12.96-4.28,1.46-6.4.41-1.74.43-3.66.64-5.49.11-.98.69-1.95.11-2.96-.34-.37-.68-.74-1.03-1.11-.62.05-1.27-.15-2.05.4-.41,11.23-3.87,21.9-8.16,32.67-1.28.94-2.82,2.05-4.34,3.19-2.41,1.8-4.43,3.98-6.1,6.5-2.35,3.55-4.85,6.99-7.54,10.3-.57.7-1.15,1.4-1.25,2.35.4,1.2,1.29,1.41,2.56,1.19,2.56-3.21,5.38-6.42,7.5-10.1,2.79-4.82,7.06-8,11.49-11.02,1.85-1.27,3.66-.7,4.52,1.4.7,1.7,1.32,3.42.76,5.4-.29,1.04-.66,1.86-1.5,2.44-1.96,1.35-3.4,3.2-4.93,4.97-2.31,2.66-4.6,5.34-6.97,7.95-.62.68-.98,1.46-1.36,2.26q1.31,1.57,4.17-.4c-.04,1.6.73,2.92,1.21,4.49-1.63.67-2.12,2.04-2.25,3.75-.34,4.61-.45,9.23-.58,13.85-.03.83-.01,1.61.74,2.36-1.64,2.21-3.27,4.4-4.93,6.64-.96-.42-.54-1.36-.96-1.88-1.93-.27-1.96-.28-2.44,1.26-1.47,4.8-.18,9.2,1.95,13.49,1.34,2.7,3.56,4.72,5.41,7.01.41.52.97.82,1.99.79.6,10.11,2.32,20.03,6.22,29.48-1.75,1.56-3.87,1.9-5.71,2.52-3.53,1.2-7.15,2.25-10.93,2.6-1.46.13-2.9.06-4.34.17-3.71.27-7.43.04-11.14.55-3.17.44-6.29-.55-9.46-.75-1.07-.06-2.15-.29-3.24-.23-3.28.17-6.48-.54-9.71-.88-2.25-.24-4.5-.41-6.76-.22-.29.71-.3,1.42.02,2.13,1.46.87,3.12.94,4.73.99ZM179.66,231.43c3.19,5.04,3.16,7.98-.24,12.62-.12-4.35-.04-8.33.24-12.62ZM170.97,256.72c-.3-.34-.15-.63.03-.91.22.31.42.61-.03.91ZM154.24,336.43c-4.93.08-9.3,1.59-13.4,4.35-.14-7.75-.32-15.18-.39-22.6-.01-1.69.05-3.43.67-5,2.21-.64,4.23.16,6.26.42,2.13.28,4.27-.21,6.47.16-.3,7.62.49,15.07.39,22.67ZM153.91,339.51c4.62-.14,8.17,1.89,11.26,5.04.43.44.8.99,1.06,1.56,1.41,3.04,1.62,6.21,1,9.47-.1.53-.29,1.06-.27,1.59.16,4.45-.2,8.88-.37,13.31-.24,6.43-.16,12.87-.8,19.28-.18,1.81.19,3.41,1.14,4.89.98,1.52,1.93,3.09,3.11,4.45,2.5,2.87,5.69,4.34,9.55,4.36,1.47.01,2.63-.92,4.47-1.35-1.35,2.39-2.34,4.4-3.56,6.25-3.03,4.62-7.39,7.69-12.71,8.58-9.3,1.57-16.78-2.16-22.72-9.24-.53-.63-1-1.29-1.9-1.44-.67.13-1.14.48-1.46,1.59-.11.27.83.75.52,1.37-.95,1.92-1.43,4.08-2.91,5.75-.83.94-1.72,1.46-2.99,1.61-1.9.23-3.78.25-5.68.13-.46-.85-.73-1.7-.82-2.6-.38-3.68-.85-7.37-1.06-11.06-.38-6.42-1.01-12.82-1.36-19.24-.66-12.07-.56-24.11.21-36.16.05-.68-.14-1.48.69-2.01,2.62,1.53,2.79,5.24,5.59,6.58,1.83-1.05,1.82-1.13,3.43-3.44,4.01-5.78,9.41-9.04,16.58-9.27Z"></path><path class="cls-8" d="M129.79,339.96c.46,3.03,2.49,5.14,4.29,7.43,1.35-.41,1.43-1.87,2.33-2.61.97-.79,1.83-1.74,2.77-2.64-.83-.64-1.32-1.29-1.31-2.33.02-2.17-.07-4.34-.17-6.51l-1.39.06c.04.7-.03,1.34-.72,1.83-3.86.41-4.07.59-5.8,4.77Z"></path><path class="cls-5" d="M174.42,267.91c.26.39.54.78.83,1.15l2-.09c0-.62.57-.92.9-1.35,1.48-1.95,3.51-3.49,4.82-5.49,3.52-5.37,8.15-9.82,12-14.92,1.54-2.04,2.28-4.01,2.16-6.43-.18-3.33-1.1-6.56-2.27-9.59-2.15-5.56-4.82-10.92-7.25-16.38-.23-.53-.47-.96-1.48-1.06-2.13,3.24-5.56,5.63-7.87,9.24,1.63.03,2.35.74,3.02,2.07.74,1.45,1.02,3.01,1.57,4.48,1.24,3.3,2.54,6.62,2.11,10.32-.16,1.37-.5,2.54-1.24,3.71-2.48,3.97-5.25,7.71-8.1,11.43-1.28,1.67-2.37,2.74-4.56,2.35-.45,4.16,1.31,7.43,3.36,10.56Z"></path><path class="cls-8" d="M127.41,383.81c.35,6.42.98,12.82,1.36,19.24.21,3.69.68,7.38,1.06,11.06.09.9.36,1.75.82,2.6,1.9.12,3.78.1,5.68-.13,1.27-.15,2.16-.67,2.99-1.61,1.48-1.67,1.96-3.83,2.91-5.75.31-.62-.63-1.1-.52-1.37.32-1.11.79-1.46,1.46-1.59.9.15,1.37.81,1.9,1.44,5.94,7.08,13.42,10.81,22.72,9.24,5.32-.89,9.68-3.96,12.71-8.58,1.22-1.85,2.21-3.86,3.56-6.25-1.84.43-3,1.36-4.47,1.35-3.86-.02-7.05-1.49-9.55-4.36-1.18-1.36-2.13-2.93-3.11-4.45-.95-1.48-1.32-3.08-1.14-4.89.64-6.41.56-12.85.8-19.28.17-4.43.53-8.86.37-13.31-.02-.53.17-1.06.27-1.59.62-3.26.41-6.43-1-9.47-.26-.57-.63-1.12-1.06-1.56-3.09-3.15-6.64-5.18-11.26-5.04-7.17.23-12.57,3.49-16.58,9.27-1.61,2.31-1.6,2.39-3.43,3.44-2.8-1.34-2.97-5.05-5.59-6.58-.83.53-.64,1.33-.69,2.01-.77,12.05-.87,24.09-.21,36.16Z"></path><path class="cls-5" d="M140.45,318.18c.07,7.42.25,14.85.39,22.6,4.1-2.76,8.47-4.27,13.4-4.35.1-7.6-.69-15.05-.39-22.67-2.2-.37-4.34.12-6.47-.16-2.03-.26-4.05-1.06-6.26-.42-.62,1.57-.68,3.31-.67,5Z"></path><path class="cls-1" d="M96.42,258.15c.24,1.2.66,2.23,1.32,3.18,2.11,3.05,4.81,5.03,8.76,4.83,2.17-.11,4.36.08,6.53,0,4.09-.15,8.12.6,12.18.75,3.16.11,6.33-.26,9.5-.22,3.38.04,5.38-1.63,7.32-4.31,1.94-2.69,2.85-5.53,2.92-8.61.14-5.43.83-10.84.63-16.29-.05-1.6-.71-2.91-1.18-4.3-.39-1.17-2.3-1.89-3.79-1.33-1.36.51-2.67.36-4,.4-10.16.3-20.32.07-30.47-.04-.73,0-1.52.14-2.17-.09-2.27-.81-4.16.32-6.22.93-.49,3.83-1.2,7.31-1.3,10.81-.13,4.75-1.01,9.5-.03,14.29ZM100.66,234.69c13.59.96,27.28,1.09,40.88.29,1.06,1.6.88,3.16.87,4.68-.04,4.98-.07,9.95-.57,14.92-.33,3.28-1.98,5.75-4.11,8.03-.5.52-1.22.68-1.96.82-4.05.78-8.16.68-12.19.35-3.34-.28-6.64-.47-9.99-.46-2.98.01-5.96.12-8.95-.34-1.49-.24-2.55-.86-3.44-1.91-1.26-1.47-2-3.11-2.02-5.16-.07-7.16.08-14.29,1.48-21.22Z"></path><path class="cls-8" d="M99.18,255.91c.02,2.05.76,3.69,2.02,5.16.89,1.05,1.95,1.67,3.44,1.91,2.99.46,5.97.35,8.95.34,3.35-.01,6.65.18,9.99.46,4.03.33,8.14.43,12.19-.35.74-.14,1.46-.3,1.96-.82,2.13-2.28,3.78-4.75,4.11-8.03.5-4.97.53-9.94.57-14.92.01-1.52.19-3.08-.87-4.68-13.6.8-27.29.67-40.88-.29-1.4,6.93-1.55,14.06-1.48,21.22Z"></path><path class="cls-1" d="M98.91,178.61q1.69.33,4.9-.81c2.64,5.44,7.05,8.92,12.56,11.24,4.58,1.92,8.94,1.53,13.25-.67,1.25-.63,2.2-1.59,2.95-2.75,1.87-2.89,1-6.22-2.07-7.79-1.28-.66-2.7-1-4.15-1.1-2.62-.19-5.24-.31-7.83-.62-3.12-.37-5.97-1.36-7.88-4.1-.4-.17-.79-.33-1.22-.5.1-.5.2-.92.29-1.35-.24-1.03.44-2.17-.41-3.19-1.26-.47-2.22.03-2.37,1.3-.49,4.2-3.53,6.07-6.81,7.76-1.58.81-1.59.78-1.21,2.58ZM130.1,181.45c.43.92.23,1.71-.05,2.74-.18-1.12-.26-1.88.05-2.74ZM124.5,179.56c1.02-.03,1.8.25,2.42.55v6.27c-1.07.04-1.82.93-3.01.57-.41-2.48.35-4.89.59-7.39ZM116.68,185.69c.26-2.34.63-4.59,1.82-6.57,1.05.15,1.92.28,3.17.46-1.05,2.53-.11,5.19-1.39,7.5-1.37-.17-2.51-.6-3.6-1.39ZM110.65,182.06c.63-1.56,1.12-3.07,2.13-4.39.81.32,1.54.62,2.39.95-.49,1.83-.97,3.6-1.47,5.46-1.37-.4-2.18-1.2-3.05-2.02ZM106.33,175.8c.46-.82,1.08-1.44,1.85-1.93.65.76,1.28,1.48,1.89,2.19-.65,1.15-.84,2.44-1.84,3.39-.79-1.2-1.58-2.29-1.9-3.65Z"></path><path class="cls-5" d="M45.74,161.29c.76.71,1.94-.31,2.64.74.6,6.07,2.3,11.98,2.86,18.08.05.59.3,1.03.58,1.48,2.66,4.19,5.21,8.46,8.04,12.53,3.24,4.67,6.37,9.42,9.21,14.35,1.29,2.22,2.75,4.42,3.17,7.01,1.07-.06,2.06-.11,3.04-.16.36.01.73.02,1.09.03,2,.74,4.12.54,6.19.75,4.51.45,9.03.8,13.55,1.13,1.34.1,2.7.03,4.06.15,4.05.34,8.1.91,12.18.67h1.1c.53.02,1.07.05,1.61.06,3.95.09,7.92-.23,11.85.28,2.06.26,4.1.39,6.16.21.37,0,.73,0,1.09-.01,1.69.32,3.26-.45,4.91-.53.54-.01,1.09-.01,1.64-.01,5.51-.26,11,.94,16.52.2.18-.02.36.01.54-.01,1.16-.09,2.15.25,2.92,1.13.06.07.09.16.11.27l.66-.08c.1-.95.68-1.65,1.25-2.35,2.69-3.31,5.19-6.75,7.54-10.3,1.67-2.52,3.69-4.7,6.1-6.5,1.52-1.14,3.06-2.25,4.34-3.19,4.29-10.77,7.75-21.44,8.16-32.67.78-.55,1.43-.35,2.05-.4.35.37.69.74,1.03,1.11l.98-.91c-.1-.08-.21-.15-.33-.21-.46-1.26-.91-2.52-1.37-3.78v-1.51c-.54.37-.93.81-1.05,1.44-1.23,1.44-2.4,2.94-3.69,4.33-10.19,11.02-26,14.28-39.5,7.71-13.9-6.77-21.02-18.28-22.17-33.6-.1-1.34-.19-2.68-.28-3.97-1.9-.88-2.5-3.24-4.83-3.43-2.22-.17-3.98.94-5.95,1.62,0,.38-.02.74,0,1.1.85,11.5-2.37,21.68-10.27,30.14-9.74,10.43-24.58,14.04-38.58,8.03-6.48-2.77-11.7-7.18-15.76-12.95-.45-.63-.71-1.55-1.94-1.27-.6.99-1.1,2.11-1.45,3.29ZM100.12,176.03c3.28-1.69,6.32-3.56,6.81-7.76.15-1.27,1.11-1.77,2.37-1.3.85,1.02.17,2.16.41,3.19-.09.43-.19.85-.29,1.35.43.17.82.33,1.22.5,1.91,2.74,4.76,3.73,7.88,4.1,2.59.31,5.21.43,7.83.62,1.45.1,2.87.44,4.15,1.1,3.07,1.57,3.94,4.9,2.07,7.79-.75,1.16-1.7,2.12-2.95,2.75-4.31,2.2-8.67,2.59-13.25.67-5.51-2.32-9.92-5.8-12.56-11.24q-3.21,1.14-4.9.81c-.38-1.8-.37-1.77,1.21-2.58Z"></path><path class="cls-7" d="M130.05,184.19c.28-1.03.48-1.82.05-2.74-.31.86-.23,1.62-.05,2.74Z"></path><path class="cls-7" d="M123.91,186.95c1.19.36,1.94-.53,3.01-.57v-6.27c-.62-.3-1.4-.58-2.42-.55-.24,2.5-1,4.91-.59,7.39Z"></path><path class="cls-7" d="M116.68,185.69c1.09.79,2.23,1.22,3.6,1.39,1.28-2.31.34-4.97,1.39-7.5-1.25-.18-2.12-.31-3.17-.46-1.19,1.98-1.56,4.23-1.82,6.57Z"></path><path class="cls-7" d="M110.65,182.06c.87.82,1.68,1.62,3.05,2.02.5-1.86.98-3.63,1.47-5.46-.85-.33-1.58-.63-2.39-.95-1.01,1.32-1.5,2.83-2.13,4.39Z"></path><path class="cls-7" d="M106.33,175.8c.32,1.36,1.11,2.45,1.9,3.65,1-.95,1.19-2.24,1.84-3.39-.61-.71-1.24-1.43-1.89-2.19-.77.49-1.39,1.11-1.85,1.93Z"></path><path class="cls-1" d="M105.73,310.77c-.01.22.02.42.07.61.15.5.52.86,1.11.98.88.18,1.53-.29,1.92-1.05.43-.86.6-1.91.67-2.75.14-1.68.56-3.32.77-4.98.33-2.56,1.1-5.11,3.13-7.23,1.44,1.88,2.07,3.9,2.79,5.89.84,2.34,1.75,4.66,2.77,6.93.72,1.61,1.24,1.73,2.82,1.11.08-.57-.1-1.2.42-1.65-2.23-4.22-3.04-9.03-5.52-13.15-1.52-2.54-3.82-2.9-5.9-.82-2.05,2.04-2.66,4.75-3.33,7.42-.59,2.35-.75,4.78-1.58,7.07-.17.5-.13,1.08-.14,1.62Z"></path><path class="cls-1" d="M158.25,235.92c2.01,1.63,4.3,2.51,6.75,1.48,1.64-.68,2.6-2.36,3.43-3.82v-3.77c-.54-.54-1.04-.94-1.42-1.43-2.83-3.76-7.51-2.06-9.32,1.28-.2.38-.31.84-.39,1.28-.32,1.77-.78,3.58.95,4.98ZM160.66,231.26c1.15.47,2.13.14,2.96-.52.96.58,1.24,1.13,1.04,1.81-.33,1.18-1.28,1.66-2.45,1.96-1.15-.68-2.33-1.33-1.55-3.25Z"></path><path class="cls-6" d="M162.21,234.51c1.17-.3,2.12-.78,2.45-1.96.2-.68-.08-1.23-1.04-1.81-.83.66-1.81.99-2.96.52-.78,1.92.4,2.57,1.55,3.25Z"></path><path class="cls-1" d="M67.28,233.4c2.2,1.33,4.56,2.01,6.94,1.56,2.32-1.48,2.71-3.37,2.59-5.54-.11-2.2-1.4-4.36-3.55-4.98-2.01-.58-4.08-.83-5.73,1.12-.82.96-1.67,1.87-2.06,3.1-.59,1.91.06,3.67,1.81,4.74ZM68.43,230.5c.29-2.21,1.88-2.49,3.1-3.08,1.2.5,1.51,1.38,1,2.26-.93,1.59-2.42,1.16-4.1.82Z"></path><path class="cls-4" d="M56.11,216.85c.59,1.83-.29,2.73-2.42,2.71-1.38-2.67-1.31-5.93-3.07-8.98-1.14,2.31-2.1,4.27-3.06,6.23.35.5,1.19.34,1.39,1.08.28,1.95-.45,3.85-.45,5.81-.01,5.62.21,11.25-.51,16.85-.11.86-.02,1.75.49,2.3,1.88,2.04,3.21,4.58,5.25,6.39,2.73,2.41,4.62,5.29,6.13,8.51l1.38.4c.11-.19.21-.39.31-.58.37-.72.69-1.48.95-2.28.22-.68.61-1.27.82-1.97.47-1.53.74-1.56,2.73-.76.09,1.1-.06,2.17-.43,3.33-1.34,4.29-4.25,7.51-7.05,10.81-.7.83-1.59,1.43-2.52,2-1.99,1.24-4.22,1.85-6.31,2.53-.34,2.55.41,4.86.04,7.27-.39,2.49-.07,5.08-.15,7.62-.08,2.44-.18,4.97-.69,7.27-.5,2.31-1.17,4.68-2.01,6.96-.79,2.13-1.37,4.34-2.08,6.67,9.46,2.89,19,4.91,28.77,5.25,9.91.35,19.9,1.04,29.45-1.94.56.31.83.65.93,1.02l1.8.03c-.05-.19-.08-.39-.07-.61,0-.54-.03-1.12.14-1.62.83-2.29.99-4.72,1.58-7.07.67-2.67,1.28-5.38,3.33-7.42,2.08-2.08,4.38-1.72,5.9.82,2.48,4.12,3.29,8.93,5.52,13.15l.57.02c2.26-.19,4.51-.02,6.76.22,3.23.34,6.43,1.05,9.71.88,1.09-.06,2.17.17,3.24.23,3.17.2,6.29,1.19,9.46.75,3.71-.51,7.43-.28,11.14-.55,1.44-.11,2.88-.04,4.34-.17,3.78-.35,7.4-1.4,10.93-2.6,1.84-.62,3.96-.96,5.71-2.52-3.9-9.45-5.62-19.37-6.22-29.48-1.02.03-1.58-.27-1.99-.79-1.85-2.29-4.07-4.31-5.41-7.01-2.13-4.29-3.42-8.69-1.95-13.49.48-1.54.51-1.53,2.44-1.26.42.52,0,1.46.96,1.88,1.66-2.24,3.29-4.43,4.93-6.64-.75-.75-.77-1.53-.74-2.36.13-4.62.24-9.24.58-13.85.13-1.71.62-3.08,2.25-3.75-.48-1.57-1.25-2.89-1.21-4.49q-2.86,1.97-4.17.4c.38-.8.74-1.58,1.36-2.26,2.37-2.61,4.66-5.29,6.97-7.95,1.53-1.77,2.97-3.62,4.93-4.97.84-.58,1.21-1.4,1.5-2.44.56-1.98-.06-3.7-.76-5.4-.86-2.1-2.67-2.67-4.52-1.4-4.43,3.02-8.7,6.2-11.49,11.02-2.12,3.68-4.94,6.89-7.5,10.1-1.27.22-2.16.01-2.56-1.19l-.66.08s.01.07.02.11l.03.15c-.33.47-.68.97-1.04,1.49-3.65,0-7.3.27-10.89-.09-2.92-.28-5.77-.35-8.67-.08-3.07.29-6.18.82-9.22.58-4.7-.37-9.4-.59-14.1-.78-1.82-.07-3.59.39-5.42.26-5.51-.37-11.01-1.03-16.54-.99-.45,0-.91-.06-1.36-.1-3.61-.31-7.21-.61-10.82-.96-3.32-.32-6.64-.7-9.61-1.02-1.18-.62-1.06-1.56-1.37-2.29-.54.04-1.05.07-2.03.14-5.83-12.12-14.53-22.61-21.24-34.52-2.78.99-4.05,3.27-5.31,5.56-.68,1.22-.99,2.56-.62,3.88.69,2.48,1.9,4.7,3.68,6.63,2.63,2.87,4.73,6.14,6.59,9.54,1.65,3.02,2.2,6.45,3.23,9.7ZM157.3,230.94c.08-.44.19-.9.39-1.28,1.81-3.34,6.49-5.04,9.32-1.28.38.49.88.89,1.42,1.43v3.77c-.83,1.46-1.79,3.14-3.43,3.82-2.45,1.03-4.74.15-6.75-1.48-1.73-1.4-1.27-3.21-.95-4.98ZM96.45,243.86c.1-3.5.81-6.98,1.3-10.81,2.06-.61,3.95-1.74,6.22-.93.65.23,1.44.09,2.17.09,10.15.11,20.31.34,30.47.04,1.33-.04,2.64.11,4-.4,1.49-.56,3.4.16,3.79,1.33.47,1.39,1.13,2.7,1.18,4.3.2,5.45-.49,10.86-.63,16.29-.07,3.08-.98,5.92-2.92,8.61-1.94,2.68-3.94,4.35-7.32,4.31-3.17-.04-6.34.33-9.5.22-4.06-.15-8.09-.9-12.18-.75-2.17.08-4.36-.11-6.53,0-3.95.2-6.65-1.78-8.76-4.83-.66-.95-1.08-1.98-1.32-3.18-.98-4.79-.1-9.54.03-14.29ZM65.47,228.66c.39-1.23,1.24-2.14,2.06-3.1,1.65-1.95,3.72-1.7,5.73-1.12,2.15.62,3.44,2.78,3.55,4.98.12,2.17-.27,4.06-2.59,5.54-2.38.45-4.74-.23-6.94-1.56-1.75-1.07-2.4-2.83-1.81-4.74Z"></path><path class="cls-5" d="M27.97,233.42c-.11,2.52.79,4.97,2.31,7.14,1.89,2.69,3.84,5.32,5.86,7.91,3.03,3.88,5.89,7.87,9.5,11.28,2.21,2.09,4.04,4.56,6,6.81,1.34.41,2.34-.23,3.2-1.03,2.4-2.26,4.79-4.54,6.4-7.38l-1.38-.4c-1.31,1.57-1.89,1.64-3.17.4-.53-.51-.89-1.12-1.22-1.77-.73-1.46-1.7-2.77-2.85-3.9-5.16-5.1-9.21-11-12.81-17.25-.5-.87-1.09-1.92-.85-2.77.84-2.98.78-6.15,2.31-8.99,2.94-5.47,4.74-11.48,7.92-16.72-2.27-3.18-4.23-6.33-7.21-9.08-.88,2.2-1.65,4.08-2.4,5.97-1.47,3.74-2.67,7.62-4.46,11.2-1.99,3.94-3.57,8.05-5.43,12.03-.95,2.03-1.63,4.34-1.72,6.55Z"></path><path class="cls-6" d="M68.43,230.5c1.68.34,3.17.77,4.1-.82.51-.88.2-1.76-1-2.26-1.22.59-2.81.87-3.1,3.08Z"></path><path class="cls-1" d="M145.31,145.52c2.97.29,4.34-.26,4.93-1.91.46-1.29-.25-2.78-1.71-3.6-1.28-.72-2.38-.44-3.57.91-1.34,1.51-1.28,2.52.35,4.6Z"></path><path class="cls-1" d="M85.21,141.62c1.1,2.23,2.07,2.82,3.89,2.36,1.44-.36,2.62-1.93,2.54-3.4-.07-1.32-1.21-2.49-2.59-2.63-1.91-.2-3.01.85-3.84,3.67Z"></path></g></svg> 