<?xml version="1.0" encoding="UTF-8"?> <svg xmlns="http://www.w3.org/2000/svg" id="Layer_2" viewBox="0 0 227.55 73.5"><defs><style>.cls-1{fill:#fffcf8;stroke:#000;stroke-miterlimit:10;stroke-width:2px;}</style></defs><g id="Layer_1-2"><path class="cls-1" d="M102.99,41.24c.05-.23.14-.47.26-.68.37-.63.75-1.25,1.23-1.81,1.62-1.73,3.72-2.93,6.01-3.55,1.16-.37,2.37-.69,3.59-.69.56-.05.22-.55.01-.81-1.05-1.36-.99-2.92-.68-4.5,1.35-5.61,3.69-11.11,7.36-15.61,1.6-1.96,3.51-3.64,5.46-5.24.9-.73,1.82-1.44,2.75-2.13,4.8-3.61,10.95-5.06,16.84-5.22,4.87-.06,9.39-.2,12.12,4.67,1.29,2.29,1.1,5.11.15,7.5-.49,1.17-1.19,2.23-1.96,3.24-1.56,1.96-3.09,3.98-4.92,5.69-1.42,1.32-2.97,2.53-4.8,3.2-1.62.52-3.31.98-5.01.76-2.6-.17-5.7-2.07-4.73-5.05.09-.32.22-.69.24-1.01.07-.95-.85-1.17-1.61-1.06-2.12.2-3.96,1.23-5.18,2.91-1.43,1.93-2.46,4.71-1.84,7.09.84,2.3,3.1,2.66,5.26,2.48.47-.02.88-.24,1.33-.32,1-.19,1.95-.59,2.97-.73.48-.17.96-.28,1.47-.34.74-.2,1.54-.27,2.31-.13,5.85,1,5.36,9.67,4.16,14.05-1.02,3.86-2.86,7.42-5.09,10.71-.6.74-1.24,1.46-1.95,2.09-.67.49-1.34,1.07-1.96,1.64-6.61,5.52-11.83,5.95-19.81,3.13-5.83-2.12-9.27-5.12-11.98-10.73-1.15-2.29-2.06-4.75-2.28-7.31-.09-.76.11-1.51.27-2.23v-.02ZM133.44,40.12c.05-1.04-.58-2.19-1.66-2.39-.28-.06-.57-.05-.86-.06-.54-.03-1.03-.19-1.56-.22-2.58-.23-5.17-.37-7.71-.89-1.13-.23-2.29-.33-3.42-.55-.4-.08-.8-.17-1.2-.24-.27-.05-.73-.13-.84.15-.08.24.03.51.09.75.21.7.21,1.43.32,2.15.13.97.3,1.93.44,2.9.4,2.76.86,5.6,2.3,8.04.67,1.09,1.87,1.99,3.09,2.31.72.2,1.54,0,2.2-.35,1.89-.95,3.51-2.32,4.76-4.01.91-1.24,1.78-2.5,2.6-3.8.71-1.13,1.36-2.39,1.44-3.73v-.02Z"></path><path class="cls-1" d="M183.11,51.92c2.35-1.03.79,2.42.45,3.35-1.11,1.75-2.77,3.11-4.49,4.25-2.18,1.36-4.67,2.6-7.31,2.37-2.06-.22-4.32-.89-5.58-2.64-.78-1.23-.99-2.75-1.31-4.15-.06-1.15.05-2.31-.04-3.46-.17-1.25-.98-3.38-2.59-2.92-1.58.57-2.25,2.4-2.01,3.97.15,1.19.69,2.3,1.39,3.26.48.69,1.13,1.32,1.43,2.11.77,1.8-.97,3.34-2.49,3.96-3.21,1.38-6.91.4-10.14-.51-1.62-.58-2.55-2.09-3.02-3.73-.34-1.05-.65-2.09-.86-3.15-.4-2.73-.88-5.53-.35-8.28.24-1.59.36-3.19.74-4.75.29-1,.32-2.04.55-3.05.32-1.44.8-2.84,1.14-4.27,1.55-4.46,3.86-8.66,6.63-12.5,2.62-3.79,6.35-6.57,9.95-9.38,2.54-2.11,5.3-1.63,8.13-.42,2.27,1,5.75,1.97,6.92,4.31.56,1.37-.22,2.75-1.32,3.59-1.03.85-2.24,1.4-3.43,1.97-2.45,1.24-5.02,2.21-7.37,3.67-1.65.98-3.17,2.21-4.27,3.81-1.45,2.05-3.09,4.01-4.11,6.32-.26.72-.51,1.52-.4,2.29.17,1.05,1.41,1.32,2.28.98,1.44-.52,2.47-1.68,3.53-2.71,2.03-1.98,3.92-4.3,6.7-5.2,1.07-.38,2.18-.53,3.3-.15,3.52,1.37,3.63,4.11,1.9,7.07-.9,1.23-1.33,2.74-1.67,4.2-.53,1.6-1,3.23-1.25,4.9-.3,2.25.49,4.88,2.59,6,2.34.93,4.31,0,6.35-1.12h.02Z"></path><path class="cls-1" d="M203.74,55.33c-.12.57-.31,1.14-.37,1.73-.16,1.63-.44,3.26-.34,4.92.1,1.59.34,3.14.53,4.71.11.65.33,1.27.21,1.93-.14.99-.77,1.62-1.65,2.06-1.27.82-2.76,1.11-4.24,1.35-3.01.48-6.17.78-9.16-.08-.74-.25-1.34-.83-1.47-1.63-.17-1.32.05-2.68.17-3.99.12-1.03.29-2.06.5-3.08.88-4.29,2.2-8.54,4.15-12.47.65-1.45,1.75-2.59,2.88-3.67,1.89-1.94,3.67-4.07,4.69-6.6.45-1.29.4-2.68.2-4.01-.21-1.88-.88-3.54-2.27-4.86-.4-.37-.75-.92-.16-1.29,3.03-1.57,6.77-.8,9.55,1.01,1.21.82,2.14,1.94,3,3.1,1.01,1.45,1.62.93,3.04.53,1.77-.47,3.57-.89,5.35-1.3.94-.19,1.85-.46,2.81-.35.79.03,1.58.03,2.29.38,1.4.61,2.76,1.57,3.01,3.19.16.91-.01,1.83-.08,2.69-.03,1.07-.47,2.06-.75,3.08-.56,1.81-1.22,3.58-2.12,5.24-1.24,2.73-2.73,5.45-5.18,7.28-.59.42-1.12.93-1.73,1.3-.91.5-1.83,1.01-2.8,1.38-2.44.91-4.26-.41-6.18-1.76-.51-.38-.92-.88-1.25-1.43-.3-.43-1.07-2.06-1.57-2.04-.7.13-.96,2.05-1.08,2.65v.02ZM218.2,38.39c-2.18-1.17-4.82.67-5.67,2.73-.45,1-.57,2.14-.64,3.24-.09,1.25-.12,2.5-.13,3.76,0,.92-.03,1.79.21,2.7.22.88.89,1.63,1.79,1.13.96-.57,1.71-1.43,2.41-2.28,1.18-1.52,2.06-3.22,2.76-5,.42-1.01.69-2.06.59-3.17-.1-1.15-.24-2.48-1.32-3.09h-.02Z"></path><path class="cls-1" d="M189.92,32.01c.24-.09.5-.16.77-.19,1.46-.17,3-.42,4.45,0,1.79.58,1.93,3.36,2.26,4.95.53,2.68-.91,5.09-2.3,7.29-1.33,2.17-3.21,4.02-5.51,5.13-2.75,1.42-5.44,1.47-8.46,1.1-2.17-.24-3.48-1.52-3.98-3.61-.76-4.64,1.73-8.97,3.61-13.02.12-.23.27-.44.4-.66.34-.54.51-1.19.82-1.73.82-1.35,1.73-2.66,2.84-3.83,1.33-1.42,3.25-2.08,5.11-1.53.9.27,1.53.94,2.18,1.58.44.44.87.89,1.3,1.34.4.43,1.02.99.85,1.63-.23.7-1.48.54-2.13.55-1.07,0-1.83-1.16-2.94-1.01-3.06.79-5.54,5.59-6.45,8.44-.21.64-.37,1.32-.22,1.99.26,1.17,1.15,2.16,2.19,2.48,2.07.5,3.68-.39,5.22-1.68.73-.56,1.75-2.29,1.35-3.2-.35-.55-1.34-.47-1.93-.6-.39-.06-.77-.19-1.11-.37-.85-.36-1-.9-.93-1.73,0-.51.08-1.04.31-1.45.27-.47.71-.81,1.17-1.18.35-.26.71-.53,1.1-.66h.02Z"></path><path class="cls-1" d="M44.35,61.05c-2.83,1.77-5.78,3.45-9,4.42-1.15.32-2.31.53-3.49.66-.68.1-1.29.3-2.01.31-1.93.03-3.87.07-5.78-.21-1.34-.27-2.56-.75-3.91-.95-2.01-.41-3.89-1.21-5.72-2.1-1.88-.93-3.59-2.19-5.22-3.51-1.97-1.57-3.76-3.44-5.03-5.63-1.64-2.85-2.31-6.05-2.91-9.24-.5-2.73-.25-5.52.11-8.25.38-2.02.64-4.07,1.23-6.05,1.19-3.73,2.94-7.29,5.18-10.5,3.06-4.3,7.09-8,11.98-10.08,4.52-2.17,9.55-3.38,14.58-3.49,3.73.02,7.74.14,11.09,1.96,2.43,1.4,4.55,3.42,6.04,5.83.79,1.31,1.05,2.87.98,4.39-.13,3.07-1.49,5.93-2.94,8.59-1.85,3.47-4.28,6.62-7.76,8.51-1.56.98-3.25,1.73-5.01,2.24-2.91.54-5.99.55-8.86-.29-1.94-.63-3.1-1.87-3.18-3.93-.46-6.12,4.14-7.97,7.77-11.82.89-.97,0-1.7-1.08-1.64-.53,0-1.05.08-1.57.16-.92.15-1.85.23-2.69.61-.54.23-1.03.58-1.49.96-1.49,1.26-2.79,2.7-3.95,4.25-3.03,4.13-5.78,8.71-6.19,13.92-.37,3.46.03,6.97,1.6,10.12.63,1.42,1.43,2.76,2.67,3.72.52.47,1.19.76,1.79,1.1,1.03.59,2.14,1,3.31,1.26,1.4.31,2.84.24,4.28.19.97-.03,1.9-.29,2.82-.57,3.64-1.03,6.81-3.85,8.82-7,.7-1.13.76-2.44.72-3.75,0-.62,0-1.24,0-1.86,0-1.57-.21-3.22.37-4.71.45-1.22,1.5-2.03,2.43-2.89.64-.71,1.43-1.25,2.14-1.89.83-.86,1.71-1.65,2.44-2.6,2.07-2.86,2.91-6.39,3.99-9.7.28-.98.77-.95,1.15-.04,1.27,2.87,2.55,5.79,3.17,8.88,1.07,6.72-.45,17.27-4.38,22.91-1.12,1.65-2.46,3.12-4,4.4-1.47,1.14-2.97,2.24-4.48,3.31h-.02Z"></path><path class="cls-1" d="M82.96,60.05c-3.57-4.26-3.41-11.56.73-15.33,1.91-1.72,4.51-3.26,7.15-2.48,1.09.33.94-.71.84-1.43-.15-1.05-.32-2.08-.5-3.12-.62-3.74-1.77-7.37-2.94-10.98-1.15-3.57-3.13-6.76-4.97-10-2.07-3.98-.34-6.34,3.52-7.93,2.93-1.3,7.03-1.12,9.81.5,1.66,1.08,2.9,2.68,4.02,4.28,1.11,1.5,2.07,3.19,2.81,4.89.28.83.43,1.72.6,2.58.36,2.71.45,5.48.06,8.18-.1,1.81-.58,3.57-.94,5.34-.28,1.8-.9,3.55-1.63,5.23-.8,2.39-1.86,4.64-3.12,6.83-.91,1.69-1.55,3.52-1.38,5.49.05.62.24,1.26.8,1.59,1.14.8,2.56-.37,2.51-1.61,0-.37-.08-.72-.21-1.06-.15-.39-.4-.91.15-1.06.36-.08.76-.02,1.12.05,1.5.37,2.65,1.6,3.57,2.78.61.9,1.1,1.9,1.01,3,.12,1.61-.82,3.03-2,4.04-1.36,1.17-3.24,1.63-5.01,1.71-1.91.1-3.68-.92-5-2.23-.71-.76-1.19-1.24-2.11-.49-.72.56-1.48,1.1-2.26,1.55-.56.33-1.23.46-1.87.61-.41.09-.83.2-1.25.21-.34,0-.68-.05-1-.13-.88-.22-1.85-.29-2.5-.99l-.02-.02ZM88.55,55.95c.77-.74,1.49-1.7,1.52-2.82.06-.75.02-1.51-.06-2.26-.09-.66-.14-1.43-.6-1.89-.66-.64-1.72-.56-2.52-.23-2.75.89-3.39,4.12-2.72,6.62.55,2.61,2.86,2.16,4.37.6l.02-.02Z"></path><path class="cls-1" d="M54.18,61.01c-.56-.55-1.04-1.29-1.1-2.1-.14-1.68.12-3.29.8-4.83.12-.33.14-.69.24-1,.21-.53.48-1.03.67-1.58.67-1.51,1.45-2.97,2.12-4.48.21-.47.42-.97.69-1.41.69-1.15,1.78-1.96,3.04-2.4,3.75-1.37,5.09.47,5.34-1.42.22-1.85-.09-3.7-.32-5.54-.35-1.82-.42-3.67-.9-5.47-.2-.76-.28-1.54-.44-2.31-.44-2.04-1.14-3.99-2.01-5.88-.67-1.49-1.26-3-1.92-4.5-.46-1.05-.75-2.16-1.01-3.27-.2-.95.15-1.97.84-2.64.72-.69,1.68-1.06,2.57-1.46,3.98-1.65,10.25-1.93,13.3,1.67,3.54,4.48,3.56,13.56,2.46,18.98-.65,2.66-1.48,5.28-2.72,7.75-.44.89-.86,1.78-1.28,2.68-.88,1.85-1.67,3.76-2.66,5.56-.46.8-1.11,1.48-1.57,2.29-.71,1.16-.15,2.73,1.22,2.91,1.08.07,1.8-.8,1.57-1.84-.21-1.01-.76-2.46.92-2.07.85.19,1.59.6,2.34,1.02.85.45,1.69,1.03,2.25,1.8,1.62,2.2,1.93,4.67.08,6.86-1.19,1.48-2.77,2.9-4.73,3.17-.36.07-.7.17-1.06.17-.36-.02-.7-.14-1.05-.18-.75-.05-1.53-.23-2.12-.7-.45-.4-.89-.82-1.25-1.31-.21-.29-.43-.52-.72-.47-.75.24-1.36.98-2.08,1.3-.63.29-1.27.56-1.91.81-2.81,1.1-6.87,1.03-9.62-.11h-.02ZM59.97,49.56c-1.36,1.38-1.93,3.32-2.38,5.15-.24.98-.52,2.33.66,2.77.95.4,2.01.11,2.92-.24,1.69-.68,2.35-2.4,3.18-3.86.84-1.74.32-5.13-2.12-5.02-.99.06-1.65.44-2.25,1.18l-.02.02Z"></path></g></svg> 